<svg width="20" height="20" viewBox="0 0 20 20" fill="none" xmlns="http://www.w3.org/2000/svg">
<path d="M3.5 4.09961H7.96094C7.92099 4.39972 7.90039 4.69977 7.90039 5C7.90039 5.30023 7.92099 5.60028 7.96094 5.90039H3.7793L3.75586 5.9668L2.70605 8.9668L2.65918 9.09961H9.22461C9.50361 9.48828 9.81343 9.84987 10.1553 10.1836C10.428 10.4499 10.7256 10.689 11.0479 10.9004H1.90039V16.0996H16.0996V12.0098C16.4246 11.9594 16.7428 11.8892 17.0537 11.7959C17.3424 11.7093 17.6241 11.6021 17.9004 11.4785V19C17.9004 19.2581 17.8136 19.4696 17.6416 19.6416C17.4696 19.8136 17.2581 19.9004 17 19.9004H16C15.7419 19.9004 15.5304 19.8136 15.3584 19.6416C15.1864 19.4696 15.0996 19.2581 15.0996 19V17.9004H2.90039V19C2.90039 19.2581 2.81359 19.4696 2.6416 19.6416C2.46961 19.8136 2.25815 19.9004 2 19.9004H1C0.74185 19.9004 0.530386 19.8136 0.358398 19.6416C0.186411 19.4696 0.0996094 19.2581 0.0996094 19V11.0186L2.19434 5.0332L2.19531 5.03125C2.28861 4.75166 2.4544 4.52741 2.69531 4.35645C2.93674 4.18511 3.20408 4.09961 3.5 4.09961ZM4.5 12.0996C4.89045 12.0996 5.21949 12.2351 5.49219 12.5078C5.76489 12.7805 5.90039 13.1096 5.90039 13.5C5.90039 13.8904 5.76489 14.2195 5.49219 14.4922C5.21949 14.7649 4.89045 14.9004 4.5 14.9004C4.10955 14.9004 3.78051 14.7649 3.50781 14.4922C3.23511 14.2195 3.09961 13.8904 3.09961 13.5C3.09961 13.1096 3.23511 12.7805 3.50781 12.5078C3.78051 12.2351 4.10955 12.0996 4.5 12.0996ZM13.5 12.0996C13.8904 12.0996 14.2195 12.2351 14.4922 12.5078C14.7649 12.7805 14.9004 13.1096 14.9004 13.5C14.9004 13.8904 14.7649 14.2195 14.4922 14.4922C14.2195 14.7649 13.8904 14.9004 13.5 14.9004C13.1096 14.9004 12.7805 14.7649 12.5078 14.4922C12.2351 14.2195 12.0996 13.8904 12.0996 13.5C12.0996 13.1096 12.2351 12.7805 12.5078 12.5078C12.7805 12.2351 13.1096 12.0996 13.5 12.0996ZM15 0.0996094C16.3569 0.0996094 17.5106 0.577025 18.4668 1.5332C19.423 2.48938 19.9004 3.64309 19.9004 5C19.9004 6.35691 19.423 7.51062 18.4668 8.4668C17.5106 9.42297 16.3569 9.90039 15 9.90039C13.6431 9.90039 12.4894 9.42297 11.5332 8.4668C10.577 7.51062 10.0996 6.35691 10.0996 5C10.0996 3.65982 10.573 2.50974 11.5215 1.54492C12.469 0.581159 13.6264 0.0996094 15 0.0996094ZM15 6.90039C14.8384 6.90039 14.6966 6.96161 14.5791 7.0791C14.4616 7.19659 14.4004 7.33841 14.4004 7.5C14.4004 7.66159 14.4616 7.80341 14.5791 7.9209C14.6966 8.03839 14.8384 8.09961 15 8.09961C15.1616 8.09961 15.3034 8.03839 15.4209 7.9209C15.5384 7.80341 15.5996 7.66159 15.5996 7.5C15.5996 7.33841 15.5384 7.19659 15.4209 7.0791C15.3034 6.96161 15.1616 6.90039 15 6.90039ZM14.4004 6.09961H15.5996V1.90039H14.4004V6.09961Z" fill="#FADF7D" stroke="#CCE88C" stroke-width="0.2"/>
</svg>
