<svg width="24" height="24" viewBox="0 0 24 24" fill="none" xmlns="http://www.w3.org/2000/svg">
<path d="M9.5 18C9.5 17.3163 9.74969 16.7191 10.2344 16.2344C10.7191 15.7497 11.3163 15.5 12 15.5C12.6837 15.5 13.2809 15.7497 13.7656 16.2344C14.2503 16.7191 14.5 17.3163 14.5 18C14.5 18.6837 14.2503 19.2809 13.7656 19.7656C13.2809 20.2503 12.6837 20.5 12 20.5C11.3163 20.5 10.7191 20.2503 10.2344 19.7656C9.74969 19.2809 9.5 18.6837 9.5 18ZM9.5 12C9.5 11.3163 9.74969 10.7191 10.2344 10.2344C10.7191 9.74969 11.3163 9.5 12 9.5C12.6837 9.5 13.2809 9.74969 13.7656 10.2344C14.2503 10.7191 14.5 11.3163 14.5 12C14.5 12.6837 14.2503 13.2809 13.7656 13.7656C13.2809 14.2503 12.6837 14.5 12 14.5C11.3163 14.5 10.7191 14.2503 10.2344 13.7656C9.74969 13.2809 9.5 12.6837 9.5 12ZM9.5 6C9.5 5.31634 9.74969 4.71906 10.2344 4.23438C10.7191 3.74969 11.3163 3.5 12 3.5C12.6837 3.5 13.2809 3.74969 13.7656 4.23438C14.2503 4.71906 14.5 5.31634 14.5 6C14.5 6.68366 14.2503 7.28094 13.7656 7.76562C13.2809 8.25031 12.6837 8.5 12 8.5C11.3163 8.5 10.7191 8.25031 10.2344 7.76562C9.74969 7.28094 9.5 6.68366 9.5 6Z" fill="#FCFBFC" stroke="#153A39"/>
</svg>
