<svg width="58" height="51" viewBox="0 0 58 51" fill="none" xmlns="http://www.w3.org/2000/svg">
<path d="M34.7842 37.3213H43.9746L43.7939 37.6836L41.0352 43.207L41.0312 43.2158C40.6625 43.8871 40.1573 44.4262 39.5186 44.8301C38.8752 45.2369 38.163 45.4404 37.3877 45.4404H34.7842V49.6045L34.3574 49.1768L26.748 41.5576L26.5723 41.3809L26.748 41.2041L34.3574 33.585L34.7842 33.1582V37.3213ZM23.3711 37.3213V45.4404H16.1299C15.4494 45.4404 14.8239 45.2608 14.2598 44.9014C13.6997 44.5445 13.2795 44.0736 13.0049 43.4912V43.4922C12.7334 42.9484 12.605 42.3758 12.6221 41.7783C12.6392 41.1801 12.802 40.6223 13.1094 40.1094L13.1104 40.1084L14.7266 37.4414L14.7998 37.3213H23.3711ZM16.6572 23.9873L19.2734 34.4629L19.4209 35.0547L18.9004 34.7373L15.834 32.8682L11.6357 39.8906L11.4014 40.2822L11.1982 39.874L8.10645 33.6836C7.80256 33.075 7.65902 32.4231 7.67578 31.7324C7.69273 31.0365 7.88883 30.3822 8.25977 29.7744L8.8916 28.7041L5.87109 26.8809L5.35742 26.5703L5.93945 26.4238L16.3545 23.8047L16.5967 23.7441L16.6572 23.9873ZM42.5957 24.6816L45.6396 29.7764H45.6387C46.0094 30.3527 46.2115 30.9961 46.2451 31.7021C46.2788 32.4106 46.1265 33.0722 45.79 33.6826L45.791 33.6836C45.4527 34.3609 44.9526 34.9029 44.2959 35.3076C43.6381 35.713 42.9189 35.917 42.1436 35.917H39.8623L39.7891 35.7949L35.5566 28.748L35.4258 28.5293L35.6465 28.4023L42.2568 24.5928L42.4697 24.4697L42.5957 24.6816ZM30.7295 8.75C31.439 8.75 32.1079 8.92797 32.7314 9.28223C33.3545 9.63629 33.8536 10.1188 34.2246 10.7266L34.2256 10.7285V10.7295L36.5684 14.6533L39.5869 12.7871L40.1094 12.4639L39.9609 13.0605L37.3447 23.5371L37.2842 23.7793L37.041 23.7188L26.626 21.0996L26.0391 20.9521L26.5596 20.6426L29.625 18.8174L23.8096 9.12891L23.583 8.75H30.7295ZM21.3848 9.8457C22.19 9.8457 22.8167 10.2121 23.2402 10.9189L26.0459 15.5859L26.123 15.7148L26.0449 15.8438L21.8125 22.8438L21.6836 23.0566L21.4707 22.9287L14.9551 19.0244L14.7402 18.8955L14.8691 18.6807L19.5293 10.9189L19.6113 10.791C20.0321 10.1681 20.6298 9.84571 21.3848 9.8457Z" fill="#E3E3E3" stroke="#153A39" stroke-width="0.5"/>
<path d="M39.4 19.6C38.65 18.85 38.0625 17.9833 37.6375 17C37.2125 16.0167 37 15 37 13.95C37 12.9 37.2 11.8625 37.6 10.8375C38 9.8125 38.65 8.85 39.55 7.95C40.1333 7.36666 40.8542 6.86666 41.7125 6.45C42.5708 6.03333 43.5875 5.70416 44.7625 5.4625C45.9375 5.22083 47.2792 5.075 48.7875 5.025C50.2958 4.975 51.9833 5.03333 53.85 5.2C53.9833 6.96666 54.025 8.59166 53.975 10.075C53.925 11.5583 53.7875 12.8958 53.5625 14.0875C53.3375 15.2792 53.0208 16.3208 52.6125 17.2125C52.2042 18.1042 51.7 18.85 51.1 19.45C50.2167 20.3333 49.2792 20.9792 48.2875 21.3875C47.2958 21.7958 46.2833 22 45.25 22C44.1667 22 43.1083 21.7875 42.075 21.3625C41.0417 20.9375 40.15 20.35 39.4 19.6ZM42.2 19.2C42.6833 19.4833 43.1792 19.6875 43.6875 19.8125C44.1958 19.9375 44.7167 20 45.25 20C46.0167 20 46.775 19.8458 47.525 19.5375C48.275 19.2292 48.9917 18.7333 49.675 18.05C49.975 17.75 50.2792 17.3292 50.5875 16.7875C50.8958 16.2458 51.1625 15.5375 51.3875 14.6625C51.6125 13.7875 51.7833 12.7292 51.9 11.4875C52.0167 10.2458 52.0333 8.76666 51.95 7.05C51.1333 7.01666 50.2125 7.00416 49.1875 7.0125C48.1625 7.02083 47.1417 7.1 46.125 7.25C45.1083 7.4 44.1417 7.64166 43.225 7.975C42.3083 8.30833 41.5583 8.76666 40.975 9.35C40.225 10.1 39.7083 10.8417 39.425 11.575C39.1417 12.3083 39 13.0167 39 13.7C39 14.6833 39.1875 15.5458 39.5625 16.2875C39.9375 17.0292 40.2667 17.55 40.55 17.85C41.25 16.5167 42.175 15.2375 43.325 14.0125C44.475 12.7875 45.8167 11.7833 47.35 11C46.15 12.05 45.1042 13.2375 44.2125 14.5625C43.3208 15.8875 42.65 17.4333 42.2 19.2Z" fill="#CCE88C"/>
</svg>
