<svg width="54" height="54" viewBox="0 0 54 54" fill="none" xmlns="http://www.w3.org/2000/svg">
<g filter="url(#filter0_d_613_811)">
<path d="M24.8 36H29.2V27.2H38V22.8H29.2V14H24.8V22.8H16V27.2H24.8V36ZM27 47C23.9567 47 21.0967 46.4225 18.42 45.2675C15.7433 44.1125 13.415 42.545 11.435 40.565C9.455 38.585 7.8875 36.2567 6.7325 33.58C5.5775 30.9033 5 28.0433 5 25C5 21.9567 5.5775 19.0967 6.7325 16.42C7.8875 13.7433 9.455 11.415 11.435 9.435C13.415 7.455 15.7433 5.8875 18.42 4.7325C21.0967 3.5775 23.9567 3 27 3C30.0433 3 32.9033 3.5775 35.58 4.7325C38.2567 5.8875 40.585 7.455 42.565 9.435C44.545 11.415 46.1125 13.7433 47.2675 16.42C48.4225 19.0967 49 21.9567 49 25C49 28.0433 48.4225 30.9033 47.2675 33.58C46.1125 36.2567 44.545 38.585 42.565 40.565C40.585 42.545 38.2567 44.1125 35.58 45.2675C32.9033 46.4225 30.0433 47 27 47ZM27 42.6C31.9133 42.6 36.075 40.895 39.485 37.485C42.895 34.075 44.6 29.9133 44.6 25C44.6 20.0867 42.895 15.925 39.485 12.515C36.075 9.105 31.9133 7.4 27 7.4C22.0867 7.4 17.925 9.105 14.515 12.515C11.105 15.925 9.4 20.0867 9.4 25C9.4 29.9133 11.105 34.075 14.515 37.485C17.925 40.895 22.0867 42.6 27 42.6Z" fill="#FCFBFC"/>
<path d="M27 2.5C30.1084 2.5 33.0364 3.09026 35.7783 4.27344C38.5105 5.45242 40.8925 7.05459 42.9189 9.08105C44.9454 11.1075 46.5476 13.4895 47.7266 16.2217C48.9097 18.9636 49.5 21.8916 49.5 25C49.5 28.1084 48.9097 31.0364 47.7266 33.7783C46.5476 36.5105 44.9454 38.8925 42.9189 40.9189C40.8925 42.9454 38.5105 44.5476 35.7783 45.7266C33.0364 46.9097 30.1084 47.5 27 47.5C23.8916 47.5 20.9636 46.9097 18.2217 45.7266C15.4895 44.5476 13.1075 42.9454 11.0811 40.9189C9.05459 38.8925 7.45242 36.5105 6.27344 33.7783C5.09026 31.0364 4.5 28.1084 4.5 25C4.5 21.8916 5.09026 18.9636 6.27344 16.2217C7.45242 13.4895 9.05459 11.1075 11.0811 9.08105C13.1075 7.05459 15.4895 5.45242 18.2217 4.27344C20.9636 3.09026 23.8916 2.5 27 2.5ZM27 7.90039C22.2165 7.90039 18.1824 9.5539 14.8682 12.8682C11.5539 16.1824 9.90039 20.2165 9.90039 25C9.90039 29.7835 11.5539 33.8176 14.8682 37.1318C18.1824 40.4461 22.2165 42.0996 27 42.0996C31.7835 42.0996 35.8176 40.4461 39.1318 37.1318C42.4461 33.8176 44.0996 29.7835 44.0996 25C44.0996 20.2165 42.4461 16.1824 39.1318 12.8682C35.8176 9.5539 31.7835 7.90039 27 7.90039ZM29.7002 13.5V22.2998H38.5V27.7002H29.7002V36.5H24.2998V27.7002H15.5V22.2998H24.2998V13.5H29.7002Z" stroke="#153A39"/>
</g>
<defs>
<filter id="filter0_d_613_811" x="0" y="0" width="54" height="54" filterUnits="userSpaceOnUse" color-interpolation-filters="sRGB">
<feFlood flood-opacity="0" result="BackgroundImageFix"/>
<feColorMatrix in="SourceAlpha" type="matrix" values="0 0 0 0 0 0 0 0 0 0 0 0 0 0 0 0 0 0 127 0" result="hardAlpha"/>
<feOffset dy="2"/>
<feGaussianBlur stdDeviation="2"/>
<feComposite in2="hardAlpha" operator="out"/>
<feColorMatrix type="matrix" values="0 0 0 0 0 0 0 0 0 0 0 0 0 0 0 0 0 0 0.25 0"/>
<feBlend mode="normal" in2="BackgroundImageFix" result="effect1_dropShadow_613_811"/>
<feBlend mode="normal" in="SourceGraphic" in2="effect1_dropShadow_613_811" result="shape"/>
</filter>
</defs>
</svg>
