<svg width="58" height="50" viewBox="0 0 58 50" fill="none" xmlns="http://www.w3.org/2000/svg">
<path d="M26 49L20.0708 43.1593H11.8407V34.9292L6 29L11.8407 23.0708V14.8407H20.0708L26 9L31.9292 14.8407H40.1593V23.0708L46 29L40.1593 34.9292V43.1593H31.9292L26 49ZM26 44.0442L29.5398 40.5044V33.9558C28.7729 33.5133 28.1386 32.7684 27.6372 31.7212C27.1357 30.674 26.885 29.472 26.885 28.115C26.885 26.4041 27.2684 24.944 28.0354 23.7345C28.8024 22.5251 29.7463 21.9204 30.8673 21.9204C31.9587 21.9204 32.8953 22.5251 33.677 23.7345C34.4587 24.944 34.8496 26.4041 34.8496 28.115C34.8496 29.5015 34.5988 30.7183 34.0973 31.7655C33.5959 32.8127 32.9617 33.5428 32.1947 33.9558V39.6195H36.6195V33.4248L41.0442 29L36.6195 24.5752V18.3805H30.4248L26 13.9558L21.5752 18.3805H15.3805V24.5752L10.9558 29L15.3805 33.4248V39.6195H19.8053V32.5398C19.0383 32.3628 18.4041 31.9572 17.9027 31.323C17.4012 30.6888 17.1504 29.9587 17.1504 29.1327V21.9204H18.9204V28.6018H20.2478V21.9204H22.0177V28.6018H23.3451V21.9204H25.115V29.1327C25.115 29.9587 24.8643 30.6888 24.3628 31.323C23.8614 31.9572 23.2271 32.3628 22.4602 32.5398V40.5044L26 44.0442Z" fill="#E3E3E3" stroke="#153A39" stroke-width="0.5"/>
<path d="M39.4 19.6C38.65 18.85 38.0625 17.9833 37.6375 17C37.2125 16.0167 37 15 37 13.95C37 12.9 37.2 11.8625 37.6 10.8375C38 9.8125 38.65 8.85 39.55 7.95C40.1333 7.36666 40.8542 6.86666 41.7125 6.45C42.5708 6.03333 43.5875 5.70416 44.7625 5.4625C45.9375 5.22083 47.2792 5.075 48.7875 5.025C50.2958 4.975 51.9833 5.03333 53.85 5.2C53.9833 6.96666 54.025 8.59166 53.975 10.075C53.925 11.5583 53.7875 12.8958 53.5625 14.0875C53.3375 15.2792 53.0208 16.3208 52.6125 17.2125C52.2042 18.1042 51.7 18.85 51.1 19.45C50.2167 20.3333 49.2792 20.9792 48.2875 21.3875C47.2958 21.7958 46.2833 22 45.25 22C44.1667 22 43.1083 21.7875 42.075 21.3625C41.0417 20.9375 40.15 20.35 39.4 19.6ZM42.2 19.2C42.6833 19.4833 43.1792 19.6875 43.6875 19.8125C44.1958 19.9375 44.7167 20 45.25 20C46.0167 20 46.775 19.8458 47.525 19.5375C48.275 19.2292 48.9917 18.7333 49.675 18.05C49.975 17.75 50.2792 17.3292 50.5875 16.7875C50.8958 16.2458 51.1625 15.5375 51.3875 14.6625C51.6125 13.7875 51.7833 12.7292 51.9 11.4875C52.0167 10.2458 52.0333 8.76666 51.95 7.05C51.1333 7.01666 50.2125 7.00416 49.1875 7.0125C48.1625 7.02083 47.1417 7.1 46.125 7.25C45.1083 7.4 44.1417 7.64166 43.225 7.975C42.3083 8.30833 41.5583 8.76666 40.975 9.35C40.225 10.1 39.7083 10.8417 39.425 11.575C39.1417 12.3083 39 13.0167 39 13.7C39 14.6833 39.1875 15.5458 39.5625 16.2875C39.9375 17.0292 40.2667 17.55 40.55 17.85C41.25 16.5167 42.175 15.2375 43.325 14.0125C44.475 12.7875 45.8167 11.7833 47.35 11C46.15 12.05 45.1042 13.2375 44.2125 14.5625C43.3208 15.8875 42.65 17.4333 42.2 19.2Z" fill="#CCE88C"/>
</svg>
