<svg width="41" height="20" viewBox="0 0 41 20" fill="none" xmlns="http://www.w3.org/2000/svg">
<path d="M34.167 13.583C36.1897 13.583 37.7924 13.9472 38.9941 14.6533C40.1875 15.3545 40.75 16.2596 40.75 17.375V19.75H33.5625V17.292C33.5625 16.5484 33.4675 15.8439 33.2754 15.1807C33.1193 14.6419 32.898 14.1321 32.6152 13.6504C32.7988 13.6281 32.985 13.6115 33.1738 13.6035C33.4975 13.5898 33.8288 13.583 34.167 13.583ZM20.5 11.5C23.5475 11.5 25.9757 12.0511 27.8037 13.1318C29.6254 14.209 30.5 15.5945 30.5 17.292V19.75H10.5V17.292C10.5 15.5955 11.3805 14.2094 13.2168 13.1318C15.0597 12.0504 17.4817 11.5 20.5 11.5ZM6.83301 13.583C7.19993 13.583 7.55269 13.5898 7.89062 13.6035C8.08382 13.6114 8.2721 13.6269 8.45508 13.6484C8.15205 14.1288 7.91586 14.6378 7.74805 15.1758C7.54068 15.8406 7.4375 16.5466 7.4375 17.292V19.75H0.25V17.375C0.25 16.2609 0.818301 15.3552 2.02637 14.6533C3.24333 13.9464 4.83993 13.583 6.83301 13.583ZM20.5 14.333C18.856 14.333 17.3771 14.5445 16.0664 14.9707C15.4146 15.1827 14.8834 15.4159 14.4814 15.6748C14.0813 15.9326 13.7892 16.229 13.6484 16.5723L13.5078 16.917H27.5527L27.3896 16.5615C27.234 16.2243 26.9362 15.932 26.5332 15.6748C26.1287 15.4167 25.6007 15.1827 24.9561 14.9707C23.6587 14.544 22.1719 14.333 20.5 14.333ZM30.75 4.41699H34.167C35.0416 4.41707 35.7832 4.71831 36.4053 5.3252C37.027 5.93191 37.333 6.65232 37.333 7.5V8.33301C37.333 9.18082 37.0272 9.90201 36.4053 10.5088C35.7832 11.1157 35.0416 11.4169 34.167 11.417C33.2924 11.417 32.5508 11.1155 31.9287 10.5088C31.3068 9.90201 31 9.18082 31 8.33301C31 8.02506 31.0457 7.74008 31.1357 7.47656C31.2291 7.20342 31.3569 6.93576 31.5186 6.67285L31.6289 6.49219L31.4697 6.35352L30.2734 5.31152L30.2637 5.30273L30.1943 5.24121C30.1374 5.18183 30.113 5.12806 30.1045 5.08105C30.0928 5.01596 30.1043 4.92206 30.1787 4.78809C30.3259 4.52299 30.5113 4.41699 30.75 4.41699ZM7.47363 3.58301C7.76116 3.58301 8.00679 3.62775 8.21387 3.71094C8.41616 3.79224 8.56917 3.91083 8.68164 4.06445L8.75684 4.16699H8.84277C8.8957 4.1956 8.94987 4.20512 8.99414 4.20703V4.20801C9.35212 4.23297 9.65671 4.33755 9.91504 4.51758C10.1673 4.69337 10.3559 4.93327 10.4814 5.24512C10.5291 5.41082 10.5456 5.56539 10.5342 5.70996C10.5215 5.87003 10.4903 6.02282 10.4404 6.16895L10.4268 6.20801V6.25C10.4268 6.29697 10.4373 6.34366 10.4453 6.375C10.4546 6.41133 10.4681 6.45238 10.4834 6.49707L10.5029 6.55371L10.5449 6.5957C10.7247 6.7711 10.8644 6.96259 10.9648 7.1709C11.0632 7.37482 11.1104 7.58143 11.1104 7.79199C11.1103 7.79345 11.1097 7.79835 11.1084 7.80762C11.1068 7.81961 11.104 7.83653 11.0996 7.85742C11.0907 7.89935 11.0769 7.95433 11.0566 8.02344C11.016 8.16215 10.9538 8.3481 10.8691 8.58203H10.8701C10.8272 8.68175 10.8234 8.78673 10.8584 8.8877L10.9385 9.51172C10.9352 10.007 10.7274 10.4363 10.2822 10.8086C9.83335 11.184 9.28615 11.375 8.62695 11.375H5.28516C4.66898 11.4011 4.15668 11.2836 3.73633 11.0352C3.38136 10.8253 3.13113 10.5148 2.98828 10.0889L2.93359 9.89941C2.88343 9.67751 2.87139 9.45667 2.89648 9.23633C2.92104 9.02101 2.98099 8.81827 3.07715 8.62695C3.07875 8.62408 3.0819 8.62227 3.08301 8.62012C3.10625 8.57465 3.11002 8.53249 3.11035 8.5293C3.11164 8.51651 3.11133 8.50584 3.11133 8.5L2.83984 8.43457C2.83392 8.4081 2.82676 8.37398 2.81836 8.33301C2.8077 8.32245 2.79587 8.30127 2.7793 8.27148C2.87371 8.23871 2.95462 8.27 2.99609 8.29688C3.03362 8.32128 3.05508 8.35002 3.0625 8.36035C3.072 8.37359 3.07795 8.38554 3.08105 8.3916C3.08723 8.40368 3.09081 8.41331 3.0918 8.41602C3.09316 8.41976 3.09458 8.42237 3.09473 8.42285C3.09472 8.42283 3.09381 8.42104 3.09277 8.41699C3.08733 8.39572 3.0777 8.35257 3.06348 8.2832L3.04785 8.20801L3.00293 8.16406C3.0103 8.17242 3.00342 8.16691 2.98242 8.12598C2.96132 8.08481 2.93399 8.02432 2.89941 7.94336C2.83231 7.78623 2.7441 7.56226 2.63477 7.26953C2.59178 6.99413 2.62836 6.73317 2.74609 6.48047C2.87645 6.20067 3.04512 5.96258 3.25 5.7627L3.33496 5.67871L3.39941 5.61621L3.40918 5.52637C3.45984 5.05779 3.6528 4.66844 3.99316 4.34863C4.32725 4.03477 4.74163 3.87504 5.25293 3.875C5.25215 3.875 5.25638 3.8748 5.26758 3.87598C5.27875 3.87715 5.29398 3.87977 5.31348 3.88281C5.35251 3.88891 5.40435 3.89771 5.46973 3.91113C5.60053 3.938 5.77859 3.97899 6.00488 4.03418L6.07422 4.05176L6.1416 4.0293L6.27051 3.9873L6.3252 3.96973L6.36719 3.92871C6.47583 3.82274 6.62428 3.73682 6.82129 3.67676C7.0235 3.61515 7.24049 3.58304 7.47363 3.58301ZM20.5 0.25C21.6975 0.25 22.7299 0.613685 23.6084 1.33887C24.4879 2.06501 25.0339 2.99214 25.251 4.12988L25.7627 7.125L25.7637 7.12793C25.8925 7.83204 25.7275 8.43531 25.2666 8.95996C24.803 9.48764 24.2168 9.75 23.4893 9.75H17.5527C16.8254 9.74991 16.2399 9.48755 15.7764 8.95996C15.3154 8.43528 15.1504 7.8321 15.2793 7.12793V7.125L15.791 4.12988C16.008 2.99201 16.555 2.06506 17.4346 1.33887C18.3141 0.612769 19.3325 0.25 20.5 0.25ZM20.5 3.08301C20.048 3.08301 19.644 3.21862 19.2988 3.49121C18.9919 3.73362 18.7932 4.04778 18.7041 4.42383L18.6729 4.58398L18.332 6.625L18.2832 6.91699H22.7598L22.7109 6.625L22.3691 4.58398C22.3018 4.13236 22.0823 3.7631 21.7178 3.48828C21.3605 3.21895 20.9519 3.08301 20.5 3.08301Z" fill="#FCFBFC" stroke="#153A39" stroke-width="0.5"/>
</svg>
