<svg width="25" height="25" viewBox="0 0 25 25" fill="none" xmlns="http://www.w3.org/2000/svg">
<path d="M17.1377 0.274414C19.2797 0.203412 21.6729 0.286404 24.3164 0.522461L24.5283 0.541016L24.5439 0.75293C24.7328 3.25533 24.7916 5.55952 24.7207 7.66504C24.6498 9.77014 24.4543 11.673 24.1338 13.3711C23.8132 15.0693 23.3611 16.5604 22.7744 17.8418C22.1873 19.1241 21.4592 20.2037 20.5879 21.0752C19.3211 22.3422 17.9705 23.275 16.5352 23.8662C15.1058 24.4549 13.6434 24.75 12.1504 24.75C10.5869 24.75 9.05971 24.4433 7.57129 23.8311C6.08322 23.2189 4.79559 22.371 3.71191 21.2871C2.63036 20.2053 1.78341 18.9546 1.1709 17.5371C0.557488 16.1176 0.25 14.6477 0.25 13.1299C0.250034 11.6145 0.53878 10.1186 1.11426 8.64355C1.6935 7.15898 2.63226 5.77032 3.92383 4.47852C4.77008 3.63212 5.81263 2.91129 7.0459 2.3125C8.28066 1.71302 9.73665 1.24194 11.4111 0.897461C13.0873 0.55266 14.997 0.345389 17.1377 0.274414ZM17.7129 3.58203C16.277 3.59371 14.8462 3.70388 13.4219 3.91406C12.0021 4.12359 10.6536 4.46109 9.37598 4.92578C8.10972 5.38632 7.08365 6.01585 6.29004 6.80957C5.24745 7.85236 4.54121 8.87219 4.15723 9.86621C3.76671 10.8773 3.57422 11.8474 3.57422 12.7773C3.57426 14.134 3.83292 15.3127 4.3418 16.3193C4.76648 17.1594 5.1432 17.7816 5.46875 18.1992C6.44626 16.411 7.70562 14.6923 9.25 13.0469C10.894 11.2954 12.8119 9.86026 15.002 8.74121L15.2803 9.15137C13.6021 10.6201 12.1397 12.2813 10.8926 14.1348C9.6826 15.9331 8.76241 18.0278 8.13379 20.4219C8.74465 20.7622 9.36709 21.0115 10.0029 21.168C10.7009 21.3396 11.417 21.4248 12.1504 21.4248C13.1984 21.4248 14.237 21.2147 15.2676 20.791C16.2908 20.3703 17.2757 19.6902 18.2217 18.7441C18.6239 18.3418 19.0408 17.7682 19.4697 17.0146C19.8905 16.2754 20.2607 15.2973 20.5752 14.0742C20.8887 12.8549 21.128 11.374 21.292 9.62891C21.4501 7.94565 21.476 5.94517 21.3711 3.62598C20.2807 3.58583 19.0614 3.57107 17.7129 3.58203Z" fill="#FCFBFC" stroke="#153A39" stroke-width="0.5"/>
</svg>
