<svg width="29" height="41" viewBox="0 0 29 41" fill="none" xmlns="http://www.w3.org/2000/svg">
<path d="M4.25 40.25V38.25C3.15 38.25 2.20833 37.8583 1.425 37.075C0.641667 36.2917 0.25 35.35 0.25 34.25V12.25C0.25 11.15 0.641667 10.2083 1.425 9.425C2.20833 8.64167 3.15 8.25 4.25 8.25H8.25V2.25C8.25 1.68333 8.44167 1.20833 8.825 0.825C9.20833 0.441667 9.68333 0.25 10.25 0.25H18.25C18.8167 0.25 19.2917 0.441667 19.675 0.825C20.0583 1.20833 20.25 1.68333 20.25 2.25V8.25H24.25C25.35 8.25 26.2917 8.64167 27.075 9.425C27.8583 10.2083 28.25 11.15 28.25 12.25V34.25C28.25 35.35 27.8583 36.2917 27.075 37.075C26.2917 37.8583 25.35 38.25 24.25 38.25V40.25H20.25V38.25H8.25V40.25H4.25ZM12.25 8.25H16.25V4.25H12.25V8.25ZM14.25 20.25C16.0167 20.25 17.7417 20.025 19.425 19.575C21.1083 19.125 22.7167 18.45 24.25 17.55V12.25H4.25V17.55C5.78333 18.45 7.39167 19.125 9.075 19.575C10.7583 20.025 12.4833 20.25 14.25 20.25ZM12.25 26.25V24.15C10.85 23.9833 9.48333 23.7333 8.15 23.4C6.81667 23.0667 5.51667 22.6167 4.25 22.05V34.25H24.25V22.05C22.9833 22.6167 21.6833 23.0667 20.35 23.4C19.0167 23.7333 17.65 23.9833 16.25 24.15V26.25H12.25Z" fill="#F2F3F0" stroke="#153A39" stroke-width="0.5"/>
</svg>
