<svg width="456" height="104" viewBox="0 0 456 104" fill="none" xmlns="http://www.w3.org/2000/svg">
<rect x="1" y="1" width="454" height="102" rx="5" fill="#CCE88C"/>
<rect x="1" y="1" width="454" height="102" rx="5" stroke="white" stroke-width="2"/>
<path d="M6.57386 33.6818H7.86364L9.59091 37.8977H9.65909L11.3864 33.6818H12.6761V39.5H11.6648V35.5028H11.6108L10.0028 39.483H9.24716L7.6392 35.4943H7.58523V39.5H6.57386V33.6818ZM15.4418 39.5852C15.0157 39.5852 14.6464 39.4915 14.3339 39.304C14.0214 39.1165 13.7789 38.8542 13.6066 38.517C13.4361 38.1799 13.3509 37.786 13.3509 37.3352C13.3509 36.8845 13.4361 36.4896 13.6066 36.1506C13.7789 35.8116 14.0214 35.5483 14.3339 35.3608C14.6464 35.1733 15.0157 35.0795 15.4418 35.0795C15.868 35.0795 16.2373 35.1733 16.5498 35.3608C16.8623 35.5483 17.1038 35.8116 17.2742 36.1506C17.4466 36.4896 17.5327 36.8845 17.5327 37.3352C17.5327 37.786 17.4466 38.1799 17.2742 38.517C17.1038 38.8542 16.8623 39.1165 16.5498 39.304C16.2373 39.4915 15.868 39.5852 15.4418 39.5852ZM15.4475 38.7614C15.6786 38.7614 15.8717 38.6979 16.027 38.571C16.1823 38.4422 16.2979 38.2699 16.3736 38.054C16.4513 37.8381 16.4901 37.5975 16.4901 37.3324C16.4901 37.0653 16.4513 36.8239 16.3736 36.608C16.2979 36.3902 16.1823 36.2169 16.027 36.0881C15.8717 35.9593 15.6786 35.8949 15.4475 35.8949C15.2108 35.8949 15.0138 35.9593 14.8566 36.0881C14.7013 36.2169 14.5848 36.3902 14.5072 36.608C14.4314 36.8239 14.3935 37.0653 14.3935 37.3324C14.3935 37.5975 14.4314 37.8381 14.5072 38.054C14.5848 38.2699 14.7013 38.4422 14.8566 38.571C15.0138 38.6979 15.2108 38.7614 15.4475 38.7614ZM19.194 36.9432V39.5H18.1656V35.1364H19.1486V35.8778H19.1997C19.3001 35.6335 19.4601 35.4394 19.6798 35.2955C19.9014 35.1515 20.1751 35.0795 20.5008 35.0795C20.802 35.0795 21.0643 35.1439 21.2878 35.2727C21.5131 35.4015 21.6874 35.5881 21.8105 35.8324C21.9355 36.0767 21.997 36.3731 21.9951 36.7216V39.5H20.9667V36.8807C20.9667 36.589 20.891 36.3608 20.7395 36.196C20.5898 36.0312 20.3825 35.9489 20.1173 35.9489C19.9374 35.9489 19.7773 35.9886 19.6372 36.0682C19.4989 36.1458 19.39 36.2585 19.3105 36.4062C19.2328 36.554 19.194 36.733 19.194 36.9432Z" fill="black"/>
<path d="M7.7983 55.5L6.15625 49.6818H7.28977L8.33807 53.9574H8.39205L9.51136 49.6818H10.5426L11.6648 53.9602H11.7159L12.7642 49.6818H13.8977L12.2557 55.5H11.2159L10.0511 51.4176H10.0057L8.83807 55.5H7.7983ZM15.8296 55.5852C15.3921 55.5852 15.0143 55.4943 14.6961 55.3125C14.3798 55.1288 14.1364 54.8693 13.966 54.5341C13.7955 54.197 13.7103 53.8002 13.7103 53.3438C13.7103 52.8949 13.7955 52.5009 13.966 52.1619C14.1383 51.821 14.3788 51.5559 14.6876 51.3665C14.9963 51.1752 15.359 51.0795 15.7756 51.0795C16.0446 51.0795 16.2984 51.1231 16.537 51.2102C16.7775 51.2955 16.9896 51.428 17.1734 51.608C17.359 51.7879 17.5048 52.017 17.6109 52.2955C17.7169 52.572 17.7699 52.9015 17.7699 53.2841V53.5994H14.1932V52.9062H16.7841C16.7823 52.7093 16.7396 52.5341 16.6563 52.3807C16.573 52.2254 16.4565 52.1032 16.3069 52.0142C16.1591 51.9252 15.9868 51.8807 15.7898 51.8807C15.5796 51.8807 15.3949 51.9318 15.2359 52.0341C15.0768 52.1345 14.9527 52.267 14.8637 52.4318C14.7766 52.5947 14.7321 52.7737 14.7302 52.9688V53.5739C14.7302 53.8277 14.7766 54.0455 14.8694 54.2273C14.9622 54.4072 15.0919 54.5455 15.2586 54.642C15.4252 54.7367 15.6203 54.7841 15.8438 54.7841C15.9934 54.7841 16.1288 54.7633 16.2501 54.7216C16.3713 54.678 16.4764 54.6146 16.5654 54.5312C16.6544 54.4479 16.7216 54.3447 16.7671 54.2216L17.7273 54.3295C17.6667 54.5833 17.5512 54.8049 17.3807 54.9943C17.2122 55.1818 16.9963 55.3277 16.733 55.4318C16.4698 55.5341 16.1686 55.5852 15.8296 55.5852ZM20.0193 55.5767C19.6765 55.5767 19.3697 55.4886 19.0988 55.3125C18.828 55.1364 18.614 54.8807 18.4568 54.5455C18.2996 54.2102 18.221 53.803 18.221 53.3239C18.221 52.839 18.3005 52.4299 18.4596 52.0966C18.6206 51.7614 18.8375 51.5085 19.1102 51.3381C19.3829 51.1657 19.6869 51.0795 20.0221 51.0795C20.2778 51.0795 20.488 51.1231 20.6528 51.2102C20.8176 51.2955 20.9483 51.3987 21.0449 51.5199C21.1414 51.6392 21.2163 51.7519 21.2693 51.858H21.3119V49.6818H22.3432V55.5H21.3318V54.8125H21.2693C21.2163 54.9186 21.1396 55.0312 21.0392 55.1506C20.9388 55.268 20.8062 55.3684 20.6414 55.4517C20.4767 55.535 20.2693 55.5767 20.0193 55.5767ZM20.3062 54.733C20.524 54.733 20.7096 54.6742 20.863 54.5568C21.0164 54.4375 21.1329 54.2718 21.2125 54.0597C21.292 53.8475 21.3318 53.6004 21.3318 53.3182C21.3318 53.036 21.292 52.7907 21.2125 52.5824C21.1348 52.3741 21.0193 52.2121 20.8659 52.0966C20.7144 51.9811 20.5278 51.9233 20.3062 51.9233C20.0771 51.9233 19.8858 51.983 19.7324 52.1023C19.5789 52.2216 19.4634 52.3864 19.3858 52.5966C19.3081 52.8068 19.2693 53.0473 19.2693 53.3182C19.2693 53.5909 19.3081 53.8343 19.3858 54.0483C19.4653 54.2604 19.5818 54.428 19.7352 54.5511C19.8905 54.6723 20.0808 54.733 20.3062 54.733Z" fill="black"/>
<path d="M10.0739 71.5V65.6818H13.8011V66.5653H11.1278V68.1449H13.5455V69.0284H11.1278V71.5H10.0739ZM14.4134 71.5V67.1364H15.4106V67.8636H15.456C15.5356 67.6117 15.6719 67.4176 15.8651 67.2812C16.0602 67.143 16.2827 67.0739 16.5327 67.0739C16.5895 67.0739 16.653 67.0767 16.7231 67.0824C16.795 67.0862 16.8547 67.0928 16.902 67.1023V68.0483C16.8585 68.0331 16.7894 68.0199 16.6947 68.0085C16.6019 67.9953 16.5119 67.9886 16.4248 67.9886C16.2373 67.9886 16.0687 68.0294 15.9191 68.1108C15.7714 68.1903 15.6549 68.3011 15.5697 68.4432C15.4844 68.5852 15.4418 68.7491 15.4418 68.9347V71.5H14.4134ZM17.3453 71.5V67.1364H18.3737V71.5H17.3453ZM17.8623 66.517C17.6995 66.517 17.5593 66.4631 17.4419 66.3551C17.3245 66.2453 17.2657 66.1136 17.2657 65.9602C17.2657 65.8049 17.3245 65.6733 17.4419 65.5653C17.5593 65.4555 17.6995 65.4006 17.8623 65.4006C18.0271 65.4006 18.1673 65.4555 18.2828 65.5653C18.4002 65.6733 18.4589 65.8049 18.4589 65.9602C18.4589 66.1136 18.4002 66.2453 18.2828 66.3551C18.1673 66.4631 18.0271 66.517 17.8623 66.517Z" fill="black"/>
<path d="M29.7045 21V15.1818H33.1932V15.8068H30.4091V17.7727H32.9318V18.3977H30.4091V21H29.7045ZM35.5782 21.0909C35.1577 21.0909 34.795 20.9981 34.4901 20.8125C34.1871 20.625 33.9532 20.3636 33.7884 20.0284C33.6255 19.6913 33.5441 19.2992 33.5441 18.8523C33.5441 18.4053 33.6255 18.0114 33.7884 17.6705C33.9532 17.3277 34.1823 17.0606 34.4759 16.8693C34.7714 16.6761 35.1161 16.5795 35.51 16.5795C35.7373 16.5795 35.9617 16.6174 36.1833 16.6932C36.4049 16.7689 36.6066 16.892 36.7884 17.0625C36.9702 17.2311 37.1151 17.4545 37.2231 17.733C37.331 18.0114 37.385 18.3542 37.385 18.7614V19.0455H34.0214V18.4659H36.7032C36.7032 18.2197 36.6539 18 36.5555 17.8068C36.4589 17.6136 36.3206 17.4612 36.1407 17.3494C35.9627 17.2377 35.7524 17.1818 35.51 17.1818C35.243 17.1818 35.0119 17.2481 34.8168 17.3807C34.6236 17.5114 34.475 17.6818 34.3708 17.892C34.2666 18.1023 34.2145 18.3277 34.2145 18.5682V18.9545C34.2145 19.2841 34.2714 19.5634 34.385 19.7926C34.5005 20.0199 34.6606 20.1932 34.8651 20.3125C35.0697 20.4299 35.3073 20.4886 35.5782 20.4886C35.7543 20.4886 35.9134 20.464 36.0555 20.4148C36.1994 20.3636 36.3234 20.2879 36.4276 20.1875C36.5318 20.0852 36.6123 19.9583 36.6691 19.8068L37.3168 19.9886C37.2486 20.2083 37.1341 20.4015 36.9731 20.5682C36.8121 20.733 36.6132 20.8617 36.3765 20.9545C36.1397 21.0455 35.8736 21.0909 35.5782 21.0909ZM38.2558 21V15.1818H38.9263V17.3295H38.9831C39.0323 17.2538 39.1005 17.1572 39.1876 17.0398C39.2766 16.9205 39.4035 16.8144 39.5683 16.7216C39.735 16.6269 39.9603 16.5795 40.2444 16.5795C40.6119 16.5795 40.9357 16.6714 41.216 16.8551C41.4963 17.0388 41.7151 17.2992 41.8723 17.6364C42.0295 17.9735 42.1081 18.3712 42.1081 18.8295C42.1081 19.2917 42.0295 19.6922 41.8723 20.0312C41.7151 20.3684 41.4973 20.6297 41.2189 20.8153C40.9405 20.9991 40.6194 21.0909 40.2558 21.0909C39.9755 21.0909 39.7511 21.0445 39.5825 20.9517C39.4139 20.857 39.2842 20.75 39.1933 20.6307C39.1024 20.5095 39.0323 20.4091 38.9831 20.3295H38.9035V21H38.2558ZM38.9149 18.8182C38.9149 19.1477 38.9632 19.4384 39.0598 19.6903C39.1564 19.9403 39.2975 20.1364 39.4831 20.2784C39.6687 20.4186 39.8959 20.4886 40.1649 20.4886C40.4452 20.4886 40.6791 20.4148 40.8666 20.267C41.056 20.1174 41.198 19.9167 41.2927 19.6648C41.3893 19.411 41.4376 19.1288 41.4376 18.8182C41.4376 18.5114 41.3903 18.2348 41.2956 17.9886C41.2028 17.7405 41.0617 17.5445 40.8723 17.4006C40.6848 17.2547 40.449 17.1818 40.1649 17.1818C39.8922 17.1818 39.663 17.2509 39.4774 17.3892C39.2918 17.5256 39.1516 17.7169 39.0569 17.9631C38.9622 18.2074 38.9149 18.4924 38.9149 18.8182Z" fill="black"/>
<path d="M64.2045 15.1818H65.0455L67.0227 20.0114H67.0909L69.0682 15.1818H69.9091V21H69.25V16.5795H69.1932L67.375 21H66.7386L64.9205 16.5795H64.8636V21H64.2045V15.1818ZM72.2749 21.1023C71.9984 21.1023 71.7475 21.0502 71.5221 20.946C71.2967 20.84 71.1177 20.6875 70.9851 20.4886C70.8526 20.2879 70.7863 20.0455 70.7863 19.7614C70.7863 19.5114 70.8355 19.3087 70.934 19.1534C71.0325 18.9962 71.1641 18.8731 71.3289 18.7841C71.4937 18.6951 71.6755 18.6288 71.8743 18.5852C72.0751 18.5398 72.2768 18.5038 72.4795 18.4773C72.7446 18.4432 72.9596 18.4176 73.1243 18.4006C73.291 18.3816 73.4122 18.3504 73.488 18.3068C73.5656 18.2633 73.6045 18.1875 73.6045 18.0795V18.0568C73.6045 17.7765 73.5278 17.5587 73.3743 17.4034C73.2228 17.2481 72.9927 17.1705 72.684 17.1705C72.3639 17.1705 72.113 17.2405 71.9312 17.3807C71.7493 17.5208 71.6215 17.6705 71.5476 17.8295L70.9113 17.6023C71.0249 17.3371 71.1764 17.1307 71.3658 16.983C71.5571 16.8333 71.7654 16.7292 71.9908 16.6705C72.2181 16.6098 72.4416 16.5795 72.6613 16.5795C72.8014 16.5795 72.9624 16.5966 73.1442 16.6307C73.3279 16.6629 73.505 16.7301 73.6755 16.8324C73.8478 16.9347 73.9908 17.089 74.1045 17.2955C74.2181 17.5019 74.2749 17.7784 74.2749 18.125V21H73.6045V20.4091H73.5704C73.5249 20.5038 73.4492 20.6051 73.3431 20.7131C73.237 20.821 73.0959 20.9129 72.9198 20.9886C72.7437 21.0644 72.5287 21.1023 72.2749 21.1023ZM72.3772 20.5C72.6423 20.5 72.8658 20.4479 73.0476 20.3438C73.2314 20.2396 73.3696 20.1051 73.4624 19.9403C73.5571 19.7756 73.6045 19.6023 73.6045 19.4205V18.8068C73.5761 18.8409 73.5136 18.8722 73.417 18.9006C73.3223 18.9271 73.2124 18.9508 73.0874 18.9716C72.9643 18.9905 72.844 19.0076 72.7266 19.0227C72.6111 19.036 72.5173 19.0473 72.4454 19.0568C72.2711 19.0795 72.1082 19.1165 71.9567 19.1676C71.8071 19.2169 71.6859 19.2917 71.5931 19.392C71.5022 19.4905 71.4567 19.625 71.4567 19.7955C71.4567 20.0284 71.5429 20.2045 71.7153 20.3239C71.8895 20.4413 72.1101 20.5 72.3772 20.5ZM77.1564 16.6364V17.2045H74.895V16.6364H77.1564ZM75.5541 15.5909H76.2245V19.75C76.2245 19.9394 76.252 20.0814 76.3069 20.1761C76.3638 20.2689 76.4357 20.3314 76.5228 20.3636C76.6119 20.3939 76.7056 20.4091 76.8041 20.4091C76.878 20.4091 76.9386 20.4053 76.9859 20.3977C77.0333 20.3883 77.0711 20.3807 77.0995 20.375L77.2359 20.9773C77.1905 20.9943 77.127 21.0114 77.0456 21.0284C76.9641 21.0473 76.8609 21.0568 76.7359 21.0568C76.5465 21.0568 76.3609 21.0161 76.1791 20.9347C75.9992 20.8532 75.8495 20.7292 75.7302 20.5625C75.6128 20.3958 75.5541 20.1856 75.5541 19.9318V15.5909Z" fill="black"/>
<path d="M98.9432 21H98.2045L100.341 15.1818H101.068L103.205 21H102.466L100.727 16.1023H100.682L98.9432 21ZM99.2159 18.7273H102.193V19.3523H99.2159V18.7273ZM103.78 22.6364V16.6364H104.428V17.3295H104.507C104.556 17.2538 104.625 17.1572 104.712 17.0398C104.801 16.9205 104.928 16.8144 105.092 16.7216C105.259 16.6269 105.484 16.5795 105.769 16.5795C106.136 16.5795 106.46 16.6714 106.74 16.8551C107.02 17.0388 107.239 17.2992 107.396 17.6364C107.554 17.9735 107.632 18.3712 107.632 18.8295C107.632 19.2917 107.554 19.6922 107.396 20.0312C107.239 20.3684 107.021 20.6297 106.743 20.8153C106.465 20.9991 106.144 21.0909 105.78 21.0909C105.5 21.0909 105.275 21.0445 105.107 20.9517C104.938 20.857 104.808 20.75 104.717 20.6307C104.626 20.5095 104.556 20.4091 104.507 20.3295H104.45V22.6364H103.78ZM104.439 18.8182C104.439 19.1477 104.487 19.4384 104.584 19.6903C104.68 19.9403 104.822 20.1364 105.007 20.2784C105.193 20.4186 105.42 20.4886 105.689 20.4886C105.969 20.4886 106.203 20.4148 106.391 20.267C106.58 20.1174 106.722 19.9167 106.817 19.6648C106.913 19.411 106.962 19.1288 106.962 18.8182C106.962 18.5114 106.914 18.2348 106.82 17.9886C106.727 17.7405 106.586 17.5445 106.396 17.4006C106.209 17.2547 105.973 17.1818 105.689 17.1818C105.416 17.1818 105.187 17.2509 105.001 17.3892C104.816 17.5256 104.676 17.7169 104.581 17.9631C104.486 18.2074 104.439 18.4924 104.439 18.8182ZM108.415 21V16.6364H109.063V17.2955H109.108C109.188 17.0795 109.332 16.9044 109.54 16.7699C109.748 16.6354 109.983 16.5682 110.244 16.5682C110.294 16.5682 110.355 16.5691 110.429 16.571C110.503 16.5729 110.559 16.5758 110.597 16.5795V17.2614C110.574 17.2557 110.522 17.2472 110.44 17.2358C110.361 17.2225 110.277 17.2159 110.188 17.2159C109.975 17.2159 109.786 17.2604 109.619 17.3494C109.455 17.4366 109.324 17.5578 109.227 17.7131C109.133 17.8665 109.085 18.0417 109.085 18.2386V21H108.415Z" fill="black"/>
<path d="M133.205 15.1818H134.045L136.023 20.0114H136.091L138.068 15.1818H138.909V21H138.25V16.5795H138.193L136.375 21H135.739L133.92 16.5795H133.864V21H133.205V15.1818ZM141.275 21.1023C140.998 21.1023 140.747 21.0502 140.522 20.946C140.297 20.84 140.118 20.6875 139.985 20.4886C139.853 20.2879 139.786 20.0455 139.786 19.7614C139.786 19.5114 139.836 19.3087 139.934 19.1534C140.032 18.9962 140.164 18.8731 140.329 18.7841C140.494 18.6951 140.675 18.6288 140.874 18.5852C141.075 18.5398 141.277 18.5038 141.479 18.4773C141.745 18.4432 141.96 18.4176 142.124 18.4006C142.291 18.3816 142.412 18.3504 142.488 18.3068C142.566 18.2633 142.604 18.1875 142.604 18.0795V18.0568C142.604 17.7765 142.528 17.5587 142.374 17.4034C142.223 17.2481 141.993 17.1705 141.684 17.1705C141.364 17.1705 141.113 17.2405 140.931 17.3807C140.749 17.5208 140.622 17.6705 140.548 17.8295L139.911 17.6023C140.025 17.3371 140.176 17.1307 140.366 16.983C140.557 16.8333 140.765 16.7292 140.991 16.6705C141.218 16.6098 141.442 16.5795 141.661 16.5795C141.801 16.5795 141.962 16.5966 142.144 16.6307C142.328 16.6629 142.505 16.7301 142.675 16.8324C142.848 16.9347 142.991 17.089 143.104 17.2955C143.218 17.5019 143.275 17.7784 143.275 18.125V21H142.604V20.4091H142.57C142.525 20.5038 142.449 20.6051 142.343 20.7131C142.237 20.821 142.096 20.9129 141.92 20.9886C141.744 21.0644 141.529 21.1023 141.275 21.1023ZM141.377 20.5C141.642 20.5 141.866 20.4479 142.048 20.3438C142.231 20.2396 142.37 20.1051 142.462 19.9403C142.557 19.7756 142.604 19.6023 142.604 19.4205V18.8068C142.576 18.8409 142.514 18.8722 142.417 18.9006C142.322 18.9271 142.212 18.9508 142.087 18.9716C141.964 18.9905 141.844 19.0076 141.727 19.0227C141.611 19.036 141.517 19.0473 141.445 19.0568C141.271 19.0795 141.108 19.1165 140.957 19.1676C140.807 19.2169 140.686 19.2917 140.593 19.392C140.502 19.4905 140.457 19.625 140.457 19.7955C140.457 20.0284 140.543 20.2045 140.715 20.3239C140.889 20.4413 141.11 20.5 141.377 20.5ZM144.534 22.6364C144.421 22.6364 144.319 22.6269 144.23 22.608C144.141 22.5909 144.08 22.5739 144.046 22.5568L144.216 21.9659C144.379 22.0076 144.523 22.0227 144.648 22.0114C144.773 22 144.884 21.9441 144.98 21.8438C145.079 21.7453 145.169 21.5852 145.25 21.3636L145.375 21.0227L143.761 16.6364H144.489L145.693 20.1136H145.739L146.943 16.6364H147.671L145.818 21.6364C145.735 21.8617 145.632 22.0483 145.509 22.196C145.386 22.3456 145.243 22.4564 145.08 22.5284C144.919 22.6004 144.737 22.6364 144.534 22.6364Z" fill="black"/>
<path d="M169.932 15.1818H170.636V19.3409C170.636 19.7121 170.568 20.0275 170.432 20.2869C170.295 20.5464 170.103 20.7434 169.855 20.8778C169.607 21.0123 169.314 21.0795 168.977 21.0795C168.659 21.0795 168.376 21.0218 168.128 20.9062C167.88 20.7888 167.685 20.6222 167.543 20.4062C167.401 20.1903 167.33 19.9337 167.33 19.6364H168.023C168.023 19.8011 168.063 19.9451 168.145 20.0682C168.228 20.1894 168.342 20.2841 168.486 20.3523C168.63 20.4205 168.794 20.4545 168.977 20.4545C169.18 20.4545 169.352 20.4119 169.494 20.3267C169.636 20.2415 169.744 20.1165 169.818 19.9517C169.894 19.785 169.932 19.5814 169.932 19.3409V15.1818ZM174.467 19.2159V16.6364H175.138V21H174.467V20.2614H174.422C174.32 20.483 174.161 20.6714 173.945 20.8267C173.729 20.9801 173.456 21.0568 173.126 21.0568C172.854 21.0568 172.611 20.9972 172.399 20.8778C172.187 20.7566 172.02 20.5748 171.899 20.3324C171.778 20.0881 171.717 19.7803 171.717 19.4091V16.6364H172.388V19.3636C172.388 19.6818 172.477 19.9356 172.655 20.125C172.835 20.3144 173.064 20.4091 173.342 20.4091C173.509 20.4091 173.679 20.3665 173.851 20.2812C174.025 20.196 174.171 20.0653 174.288 19.8892C174.408 19.7131 174.467 19.4886 174.467 19.2159ZM176.796 18.375V21H176.126V16.6364H176.774V17.3182H176.83C176.933 17.0966 177.088 16.9186 177.296 16.7841C177.505 16.6477 177.774 16.5795 178.103 16.5795C178.399 16.5795 178.657 16.6402 178.879 16.7614C179.1 16.8807 179.273 17.0625 179.396 17.3068C179.519 17.5492 179.58 17.8561 179.58 18.2273V21H178.91V18.2727C178.91 17.9299 178.821 17.6629 178.643 17.4716C178.465 17.2784 178.221 17.1818 177.91 17.1818C177.696 17.1818 177.505 17.2282 177.336 17.321C177.169 17.4138 177.038 17.5492 176.941 17.7273C176.845 17.9053 176.796 18.1212 176.796 18.375Z" fill="black"/>
<path d="M204.432 15.1818H205.136V19.3409C205.136 19.7121 205.068 20.0275 204.932 20.2869C204.795 20.5464 204.603 20.7434 204.355 20.8778C204.107 21.0123 203.814 21.0795 203.477 21.0795C203.159 21.0795 202.876 21.0218 202.628 20.9062C202.38 20.7888 202.185 20.6222 202.043 20.4062C201.901 20.1903 201.83 19.9337 201.83 19.6364H202.523C202.523 19.8011 202.563 19.9451 202.645 20.0682C202.728 20.1894 202.842 20.2841 202.986 20.3523C203.13 20.4205 203.294 20.4545 203.477 20.4545C203.68 20.4545 203.852 20.4119 203.994 20.3267C204.136 20.2415 204.244 20.1165 204.318 19.9517C204.394 19.785 204.432 19.5814 204.432 19.3409V15.1818ZM208.967 19.2159V16.6364H209.638V21H208.967V20.2614H208.922C208.82 20.483 208.661 20.6714 208.445 20.8267C208.229 20.9801 207.956 21.0568 207.626 21.0568C207.354 21.0568 207.111 20.9972 206.899 20.8778C206.687 20.7566 206.52 20.5748 206.399 20.3324C206.278 20.0881 206.217 19.7803 206.217 19.4091V16.6364H206.888V19.3636C206.888 19.6818 206.977 19.9356 207.155 20.125C207.335 20.3144 207.564 20.4091 207.842 20.4091C208.009 20.4091 208.179 20.3665 208.351 20.2812C208.525 20.196 208.671 20.0653 208.788 19.8892C208.908 19.7131 208.967 19.4886 208.967 19.2159ZM211.296 15.1818V21H210.626V15.1818H211.296Z" fill="black"/>
<path d="M236.943 21H236.205L238.341 15.1818H239.068L241.205 21H240.466L238.727 16.1023H238.682L236.943 21ZM237.216 18.7273H240.193V19.3523H237.216V18.7273ZM244.53 19.2159V16.6364H245.2V21H244.53V20.2614H244.484C244.382 20.483 244.223 20.6714 244.007 20.8267C243.791 20.9801 243.519 21.0568 243.189 21.0568C242.916 21.0568 242.674 20.9972 242.462 20.8778C242.25 20.7566 242.083 20.5748 241.962 20.3324C241.84 20.0881 241.78 19.7803 241.78 19.4091V16.6364H242.45V19.3636C242.45 19.6818 242.539 19.9356 242.717 20.125C242.897 20.3144 243.126 20.4091 243.405 20.4091C243.572 20.4091 243.741 20.3665 243.913 20.2812C244.088 20.196 244.233 20.0653 244.351 19.8892C244.47 19.7131 244.53 19.4886 244.53 19.2159ZM247.95 22.7273C247.626 22.7273 247.347 22.6856 247.114 22.6023C246.882 22.5208 246.687 22.4129 246.532 22.2784C246.379 22.1458 246.257 22.0038 246.166 21.8523L246.7 21.4773C246.76 21.5568 246.837 21.6477 246.93 21.75C247.023 21.8542 247.149 21.9441 247.31 22.0199C247.473 22.0975 247.686 22.1364 247.95 22.1364C248.302 22.1364 248.593 22.0511 248.822 21.8807C249.051 21.7102 249.166 21.4432 249.166 21.0795V20.1932H249.109C249.06 20.2727 248.989 20.3712 248.899 20.4886C248.81 20.6042 248.681 20.7074 248.512 20.7983C248.346 20.8873 248.12 20.9318 247.836 20.9318C247.484 20.9318 247.167 20.8485 246.887 20.6818C246.609 20.5152 246.388 20.2727 246.225 19.9545C246.064 19.6364 245.984 19.25 245.984 18.7955C245.984 18.3485 246.062 17.9593 246.22 17.6278C246.377 17.2945 246.596 17.0369 246.876 16.8551C247.156 16.6714 247.48 16.5795 247.847 16.5795C248.132 16.5795 248.357 16.6269 248.524 16.7216C248.692 16.8144 248.821 16.9205 248.91 17.0398C249.001 17.1572 249.071 17.2538 249.12 17.3295H249.188V16.6364H249.836V21.125C249.836 21.5 249.751 21.8049 249.58 22.0398C249.412 22.2765 249.185 22.4498 248.899 22.5597C248.614 22.6714 248.298 22.7273 247.95 22.7273ZM247.927 20.3295C248.196 20.3295 248.423 20.268 248.609 20.1449C248.794 20.0218 248.935 19.8447 249.032 19.6136C249.129 19.3826 249.177 19.1061 249.177 18.7841C249.177 18.4697 249.13 18.1922 249.035 17.9517C248.94 17.7112 248.8 17.5227 248.614 17.3864C248.429 17.25 248.2 17.1818 247.927 17.1818C247.643 17.1818 247.406 17.2538 247.217 17.3977C247.029 17.5417 246.888 17.7348 246.793 17.9773C246.701 18.2197 246.654 18.4886 246.654 18.7841C246.654 19.0871 246.702 19.3551 246.796 19.5881C246.893 19.8191 247.035 20.0009 247.222 20.1335C247.412 20.2642 247.647 20.3295 247.927 20.3295Z" fill="black"/>
<path d="M274.386 16.6364C274.352 16.3485 274.214 16.125 273.972 15.9659C273.729 15.8068 273.432 15.7273 273.08 15.7273C272.822 15.7273 272.597 15.7689 272.403 15.8523C272.212 15.9356 272.063 16.0502 271.955 16.196C271.848 16.3419 271.795 16.5076 271.795 16.6932C271.795 16.8485 271.832 16.982 271.906 17.0938C271.982 17.2036 272.079 17.2955 272.196 17.3693C272.313 17.4413 272.437 17.5009 272.565 17.5483C272.694 17.5937 272.812 17.6307 272.92 17.6591L273.511 17.8182C273.663 17.858 273.831 17.9129 274.017 17.983C274.205 18.053 274.384 18.1487 274.554 18.2699C274.726 18.3892 274.868 18.5426 274.98 18.7301C275.092 18.9176 275.148 19.1477 275.148 19.4205C275.148 19.7348 275.065 20.0189 274.901 20.2727C274.738 20.5265 274.499 20.7282 274.185 20.8778C273.872 21.0275 273.492 21.1023 273.045 21.1023C272.629 21.1023 272.268 21.035 271.963 20.9006C271.66 20.7661 271.421 20.5786 271.247 20.3381C271.075 20.0975 270.977 19.8182 270.955 19.5H271.682C271.701 19.7197 271.775 19.9015 271.903 20.0455C272.034 20.1875 272.199 20.2936 272.398 20.3636C272.598 20.4318 272.814 20.4659 273.045 20.4659C273.314 20.4659 273.556 20.4223 273.77 20.3352C273.984 20.2462 274.153 20.1231 274.278 19.9659C274.403 19.8068 274.466 19.6212 274.466 19.4091C274.466 19.2159 274.412 19.0587 274.304 18.9375C274.196 18.8163 274.054 18.7178 273.878 18.642C273.702 18.5663 273.511 18.5 273.307 18.4432L272.591 18.2386C272.136 18.108 271.777 17.9214 271.511 17.679C271.246 17.4366 271.114 17.1193 271.114 16.7273C271.114 16.4015 271.202 16.1174 271.378 15.875C271.556 15.6307 271.795 15.4413 272.094 15.3068C272.395 15.1705 272.731 15.1023 273.102 15.1023C273.477 15.1023 273.811 15.1695 274.102 15.304C274.394 15.4366 274.625 15.6184 274.795 15.8494C274.968 16.0805 275.059 16.3428 275.068 16.6364H274.386ZM277.805 21.0909C277.384 21.0909 277.022 20.9981 276.717 20.8125C276.414 20.625 276.18 20.3636 276.015 20.0284C275.852 19.6913 275.771 19.2992 275.771 18.8523C275.771 18.4053 275.852 18.0114 276.015 17.6705C276.18 17.3277 276.409 17.0606 276.702 16.8693C276.998 16.6761 277.343 16.5795 277.737 16.5795C277.964 16.5795 278.188 16.6174 278.41 16.6932C278.631 16.7689 278.833 16.892 279.015 17.0625C279.197 17.2311 279.342 17.4545 279.45 17.733C279.558 18.0114 279.612 18.3542 279.612 18.7614V19.0455H276.248V18.4659H278.93C278.93 18.2197 278.881 18 278.782 17.8068C278.685 17.6136 278.547 17.4612 278.367 17.3494C278.189 17.2377 277.979 17.1818 277.737 17.1818C277.47 17.1818 277.238 17.2481 277.043 17.3807C276.85 17.5114 276.702 17.6818 276.597 17.892C276.493 18.1023 276.441 18.3277 276.441 18.5682V18.9545C276.441 19.2841 276.498 19.5634 276.612 19.7926C276.727 20.0199 276.887 20.1932 277.092 20.3125C277.296 20.4299 277.534 20.4886 277.805 20.4886C277.981 20.4886 278.14 20.464 278.282 20.4148C278.426 20.3636 278.55 20.2879 278.654 20.1875C278.758 20.0852 278.839 19.9583 278.896 19.8068L279.543 19.9886C279.475 20.2083 279.361 20.4015 279.2 20.5682C279.039 20.733 278.84 20.8617 278.603 20.9545C278.366 21.0455 278.1 21.0909 277.805 21.0909ZM280.391 22.6364V16.6364H281.039V17.3295H281.119C281.168 17.2538 281.236 17.1572 281.323 17.0398C281.412 16.9205 281.539 16.8144 281.704 16.7216C281.871 16.6269 282.096 16.5795 282.38 16.5795C282.748 16.5795 283.071 16.6714 283.352 16.8551C283.632 17.0388 283.851 17.2992 284.008 17.6364C284.165 17.9735 284.244 18.3712 284.244 18.8295C284.244 19.2917 284.165 19.6922 284.008 20.0312C283.851 20.3684 283.633 20.6297 283.355 20.8153C283.076 20.9991 282.755 21.0909 282.391 21.0909C282.111 21.0909 281.887 21.0445 281.718 20.9517C281.55 20.857 281.42 20.75 281.329 20.6307C281.238 20.5095 281.168 20.4091 281.119 20.3295H281.062V22.6364H280.391ZM281.051 18.8182C281.051 19.1477 281.099 19.4384 281.195 19.6903C281.292 19.9403 281.433 20.1364 281.619 20.2784C281.804 20.4186 282.032 20.4886 282.301 20.4886C282.581 20.4886 282.815 20.4148 283.002 20.267C283.192 20.1174 283.334 19.9167 283.428 19.6648C283.525 19.411 283.573 19.1288 283.573 18.8182C283.573 18.5114 283.526 18.2348 283.431 17.9886C283.338 17.7405 283.197 17.5445 283.008 17.4006C282.82 17.2547 282.585 17.1818 282.301 17.1818C282.028 17.1818 281.799 17.2509 281.613 17.3892C281.427 17.5256 281.287 17.7169 281.193 17.9631C281.098 18.2074 281.051 18.4924 281.051 18.8182Z" fill="black"/>
<path d="M310.614 18.0909C310.614 18.7045 310.503 19.2348 310.281 19.6818C310.06 20.1288 309.756 20.4735 309.369 20.7159C308.983 20.9583 308.542 21.0795 308.045 21.0795C307.549 21.0795 307.108 20.9583 306.722 20.7159C306.335 20.4735 306.031 20.1288 305.81 19.6818C305.588 19.2348 305.477 18.7045 305.477 18.0909C305.477 17.4773 305.588 16.947 305.81 16.5C306.031 16.053 306.335 15.7083 306.722 15.4659C307.108 15.2235 307.549 15.1023 308.045 15.1023C308.542 15.1023 308.983 15.2235 309.369 15.4659C309.756 15.7083 310.06 16.053 310.281 16.5C310.503 16.947 310.614 17.4773 310.614 18.0909ZM309.932 18.0909C309.932 17.5871 309.848 17.1619 309.679 16.8153C309.512 16.4688 309.286 16.2064 309 16.0284C308.716 15.8504 308.398 15.7614 308.045 15.7614C307.693 15.7614 307.374 15.8504 307.088 16.0284C306.804 16.2064 306.578 16.4688 306.409 16.8153C306.242 17.1619 306.159 17.5871 306.159 18.0909C306.159 18.5947 306.242 19.0199 306.409 19.3665C306.578 19.7131 306.804 19.9754 307.088 20.1534C307.374 20.3314 307.693 20.4205 308.045 20.4205C308.398 20.4205 308.716 20.3314 309 20.1534C309.286 19.9754 309.512 19.7131 309.679 19.3665C309.848 19.0199 309.932 18.5947 309.932 18.0909ZM313.24 21.0909C312.831 21.0909 312.479 20.9943 312.183 20.8011C311.888 20.608 311.661 20.3419 311.501 20.0028C311.342 19.6638 311.263 19.2765 311.263 18.8409C311.263 18.3977 311.344 18.0066 311.507 17.6676C311.672 17.3267 311.901 17.0606 312.195 16.8693C312.49 16.6761 312.835 16.5795 313.229 16.5795C313.536 16.5795 313.812 16.6364 314.058 16.75C314.305 16.8636 314.506 17.0227 314.663 17.2273C314.821 17.4318 314.918 17.6705 314.956 17.9432H314.286C314.234 17.7443 314.121 17.5682 313.945 17.4148C313.77 17.2595 313.536 17.1818 313.24 17.1818C312.979 17.1818 312.75 17.25 312.553 17.3864C312.358 17.5208 312.205 17.7112 312.095 17.9574C311.987 18.2017 311.933 18.4886 311.933 18.8182C311.933 19.1553 311.986 19.4489 312.092 19.6989C312.2 19.9489 312.352 20.143 312.547 20.2812C312.744 20.4195 312.975 20.4886 313.24 20.4886C313.414 20.4886 313.573 20.4583 313.715 20.3977C313.857 20.3371 313.977 20.25 314.075 20.1364C314.174 20.0227 314.244 19.8864 314.286 19.7273H314.956C314.918 19.9848 314.824 20.2169 314.675 20.4233C314.527 20.6278 314.331 20.7907 314.087 20.9119C313.844 21.0312 313.562 21.0909 313.24 21.0909ZM317.594 16.6364V17.2045H315.333V16.6364H317.594ZM315.992 15.5909H316.662V19.75C316.662 19.9394 316.69 20.0814 316.744 20.1761C316.801 20.2689 316.873 20.3314 316.96 20.3636C317.049 20.3939 317.143 20.4091 317.242 20.4091C317.315 20.4091 317.376 20.4053 317.423 20.3977C317.471 20.3883 317.509 20.3807 317.537 20.375L317.673 20.9773C317.628 20.9943 317.565 21.0114 317.483 21.0284C317.402 21.0473 317.298 21.0568 317.173 21.0568C316.984 21.0568 316.798 21.0161 316.617 20.9347C316.437 20.8532 316.287 20.7292 316.168 20.5625C316.05 20.3958 315.992 20.1856 315.992 19.9318V15.5909Z" fill="black"/>
<path d="M344.818 15.1818V21H344.136L340.966 16.4318H340.909V21H340.205V15.1818H340.886L344.068 19.7614H344.125V15.1818H344.818ZM347.67 21.0909C347.276 21.0909 346.93 20.9972 346.633 20.8097C346.337 20.6222 346.106 20.3598 345.94 20.0227C345.775 19.6856 345.693 19.2917 345.693 18.8409C345.693 18.3864 345.775 17.9896 345.94 17.6506C346.106 17.3116 346.337 17.0483 346.633 16.8608C346.93 16.6733 347.276 16.5795 347.67 16.5795C348.064 16.5795 348.408 16.6733 348.704 16.8608C349.001 17.0483 349.232 17.3116 349.397 17.6506C349.564 17.9896 349.647 18.3864 349.647 18.8409C349.647 19.2917 349.564 19.6856 349.397 20.0227C349.232 20.3598 349.001 20.6222 348.704 20.8097C348.408 20.9972 348.064 21.0909 347.67 21.0909ZM347.67 20.4886C347.969 20.4886 348.215 20.4119 348.408 20.2585C348.602 20.1051 348.745 19.9034 348.837 19.6534C348.93 19.4034 348.977 19.1326 348.977 18.8409C348.977 18.5492 348.93 18.2775 348.837 18.0256C348.745 17.7737 348.602 17.5701 348.408 17.4148C348.215 17.2595 347.969 17.1818 347.67 17.1818C347.371 17.1818 347.124 17.2595 346.931 17.4148C346.738 17.5701 346.595 17.7737 346.502 18.0256C346.409 18.2775 346.363 18.5492 346.363 18.8409C346.363 19.1326 346.409 19.4034 346.502 19.6534C346.595 19.9034 346.738 20.1051 346.931 20.2585C347.124 20.4119 347.371 20.4886 347.67 20.4886ZM353.842 16.6364L352.229 21H351.547L349.933 16.6364H350.661L351.865 20.1136H351.911L353.115 16.6364H353.842Z" fill="black"/>
<path d="M376.5 21H374.705V15.1818H376.58C377.144 15.1818 377.627 15.2983 378.028 15.5312C378.43 15.7623 378.738 16.0947 378.952 16.5284C379.166 16.9602 379.273 17.4773 379.273 18.0795C379.273 18.6856 379.165 19.2074 378.949 19.6449C378.733 20.0805 378.419 20.4157 378.006 20.6506C377.593 20.8835 377.091 21 376.5 21ZM375.409 20.375H376.455C376.936 20.375 377.334 20.2822 377.651 20.0966C377.967 19.911 378.203 19.6468 378.358 19.304C378.513 18.9612 378.591 18.553 378.591 18.0795C378.591 17.6098 378.514 17.2055 378.361 16.8665C378.207 16.5256 377.978 16.2642 377.673 16.0824C377.368 15.8987 376.989 15.8068 376.534 15.8068H375.409V20.375ZM381.953 21.0909C381.533 21.0909 381.17 20.9981 380.865 20.8125C380.562 20.625 380.328 20.3636 380.163 20.0284C380.001 19.6913 379.919 19.2992 379.919 18.8523C379.919 18.4053 380.001 18.0114 380.163 17.6705C380.328 17.3277 380.557 17.0606 380.851 16.8693C381.146 16.6761 381.491 16.5795 381.885 16.5795C382.112 16.5795 382.337 16.6174 382.558 16.6932C382.78 16.7689 382.982 16.892 383.163 17.0625C383.345 17.2311 383.49 17.4545 383.598 17.733C383.706 18.0114 383.76 18.3542 383.76 18.7614V19.0455H380.396V18.4659H383.078C383.078 18.2197 383.029 18 382.93 17.8068C382.834 17.6136 382.696 17.4612 382.516 17.3494C382.338 17.2377 382.127 17.1818 381.885 17.1818C381.618 17.1818 381.387 17.2481 381.192 17.3807C380.999 17.5114 380.85 17.6818 380.746 17.892C380.642 18.1023 380.59 18.3277 380.59 18.5682V18.9545C380.59 19.2841 380.646 19.5634 380.76 19.7926C380.876 20.0199 381.036 20.1932 381.24 20.3125C381.445 20.4299 381.682 20.4886 381.953 20.4886C382.129 20.4886 382.288 20.464 382.43 20.4148C382.574 20.3636 382.698 20.2879 382.803 20.1875C382.907 20.0852 382.987 19.9583 383.044 19.8068L383.692 19.9886C383.624 20.2083 383.509 20.4015 383.348 20.5682C383.187 20.733 382.988 20.8617 382.751 20.9545C382.515 21.0455 382.249 21.0909 381.953 21.0909ZM386.313 21.0909C385.904 21.0909 385.551 20.9943 385.256 20.8011C384.96 20.608 384.733 20.3419 384.574 20.0028C384.415 19.6638 384.335 19.2765 384.335 18.8409C384.335 18.3977 384.417 18.0066 384.58 17.6676C384.744 17.3267 384.974 17.0606 385.267 16.8693C385.563 16.6761 385.907 16.5795 386.301 16.5795C386.608 16.5795 386.885 16.6364 387.131 16.75C387.377 16.8636 387.579 17.0227 387.736 17.2273C387.893 17.4318 387.991 17.6705 388.029 17.9432H387.358C387.307 17.7443 387.193 17.5682 387.017 17.4148C386.843 17.2595 386.608 17.1818 386.313 17.1818C386.051 17.1818 385.822 17.25 385.625 17.3864C385.43 17.5208 385.278 17.7112 385.168 17.9574C385.06 18.2017 385.006 18.4886 385.006 18.8182C385.006 19.1553 385.059 19.4489 385.165 19.6989C385.273 19.9489 385.424 20.143 385.619 20.2812C385.816 20.4195 386.047 20.4886 386.313 20.4886C386.487 20.4886 386.645 20.4583 386.787 20.3977C386.929 20.3371 387.049 20.25 387.148 20.1364C387.246 20.0227 387.316 19.8864 387.358 19.7273H388.029C387.991 19.9848 387.897 20.2169 387.747 20.4233C387.6 20.6278 387.404 20.7907 387.159 20.9119C386.917 21.0312 386.635 21.0909 386.313 21.0909Z" fill="black"/>
<path d="M411.432 15.1818H412.136V19.3409C412.136 19.7121 412.068 20.0275 411.932 20.2869C411.795 20.5464 411.603 20.7434 411.355 20.8778C411.107 21.0123 410.814 21.0795 410.477 21.0795C410.159 21.0795 409.876 21.0218 409.628 20.9062C409.38 20.7888 409.185 20.6222 409.043 20.4062C408.901 20.1903 408.83 19.9337 408.83 19.6364H409.523C409.523 19.8011 409.563 19.9451 409.645 20.0682C409.728 20.1894 409.842 20.2841 409.986 20.3523C410.13 20.4205 410.294 20.4545 410.477 20.4545C410.68 20.4545 410.852 20.4119 410.994 20.3267C411.136 20.2415 411.244 20.1165 411.318 19.9517C411.394 19.785 411.432 19.5814 411.432 19.3409V15.1818ZM414.501 21.1023C414.225 21.1023 413.974 21.0502 413.749 20.946C413.523 20.84 413.344 20.6875 413.212 20.4886C413.079 20.2879 413.013 20.0455 413.013 19.7614C413.013 19.5114 413.062 19.3087 413.161 19.1534C413.259 18.9962 413.391 18.8731 413.555 18.7841C413.72 18.6951 413.902 18.6288 414.101 18.5852C414.302 18.5398 414.503 18.5038 414.706 18.4773C414.971 18.4432 415.186 18.4176 415.351 18.4006C415.518 18.3816 415.639 18.3504 415.715 18.3068C415.792 18.2633 415.831 18.1875 415.831 18.0795V18.0568C415.831 17.7765 415.754 17.5587 415.601 17.4034C415.449 17.2481 415.219 17.1705 414.911 17.1705C414.59 17.1705 414.34 17.2405 414.158 17.3807C413.976 17.5208 413.848 17.6705 413.774 17.8295L413.138 17.6023C413.251 17.3371 413.403 17.1307 413.592 16.983C413.784 16.8333 413.992 16.7292 414.217 16.6705C414.445 16.6098 414.668 16.5795 414.888 16.5795C415.028 16.5795 415.189 16.5966 415.371 16.6307C415.555 16.6629 415.732 16.7301 415.902 16.8324C416.074 16.9347 416.217 17.089 416.331 17.2955C416.445 17.5019 416.501 17.7784 416.501 18.125V21H415.831V20.4091H415.797C415.751 20.5038 415.676 20.6051 415.57 20.7131C415.464 20.821 415.323 20.9129 415.146 20.9886C414.97 21.0644 414.755 21.1023 414.501 21.1023ZM414.604 20.5C414.869 20.5 415.092 20.4479 415.274 20.3438C415.458 20.2396 415.596 20.1051 415.689 19.9403C415.784 19.7756 415.831 19.6023 415.831 19.4205V18.8068C415.803 18.8409 415.74 18.8722 415.644 18.9006C415.549 18.9271 415.439 18.9508 415.314 18.9716C415.191 18.9905 415.071 19.0076 414.953 19.0227C414.838 19.036 414.744 19.0473 414.672 19.0568C414.498 19.0795 414.335 19.1165 414.183 19.1676C414.034 19.2169 413.912 19.2917 413.82 19.392C413.729 19.4905 413.683 19.625 413.683 19.7955C413.683 20.0284 413.769 20.2045 413.942 20.3239C414.116 20.4413 414.337 20.5 414.604 20.5ZM418.156 18.375V21H417.485V16.6364H418.133V17.3182H418.19C418.292 17.0966 418.447 16.9186 418.656 16.7841C418.864 16.6477 419.133 16.5795 419.462 16.5795C419.758 16.5795 420.016 16.6402 420.238 16.7614C420.46 16.8807 420.632 17.0625 420.755 17.3068C420.878 17.5492 420.94 17.8561 420.94 18.2273V21H420.269V18.2727C420.269 17.9299 420.18 17.6629 420.002 17.4716C419.824 17.2784 419.58 17.1818 419.269 17.1818C419.055 17.1818 418.864 17.2282 418.695 17.321C418.529 17.4138 418.397 17.5492 418.301 17.7273C418.204 17.9053 418.156 18.1212 418.156 18.375Z" fill="black"/>
<rect x="29" y="24" width="7" height="7" rx="1" fill="#787880" fill-opacity="0.16"/>
<rect x="37.6001" y="24" width="7" height="7" rx="1" fill="#787880" fill-opacity="0.16"/>
<rect x="46.2" y="24" width="7" height="7" rx="1" fill="#787880" fill-opacity="0.16"/>
<rect x="54.8" y="24" width="7" height="7" rx="1" fill="#787880" fill-opacity="0.16"/>
<rect x="63.3999" y="24" width="7" height="7" rx="1" fill="#787880" fill-opacity="0.16"/>
<rect x="72" y="24" width="7" height="7" rx="1" fill="#787880" fill-opacity="0.16"/>
<rect x="80.6001" y="24" width="7" height="7" rx="1" fill="#787880" fill-opacity="0.16"/>
<rect x="89.2" y="24" width="7" height="7" rx="1" fill="#787880" fill-opacity="0.16"/>
<rect x="97.8" y="24" width="7" height="7" rx="1" fill="#787880" fill-opacity="0.16"/>
<rect x="106.4" y="24" width="7" height="7" rx="1" fill="#787880" fill-opacity="0.16"/>
<rect x="115" y="24" width="7" height="7" rx="1" fill="#787880" fill-opacity="0.16"/>
<rect x="123.6" y="24" width="7" height="7" rx="1" fill="#787880" fill-opacity="0.16"/>
<rect x="132.2" y="24" width="7" height="7" rx="1" fill="#787880" fill-opacity="0.16"/>
<rect x="140.8" y="24" width="7" height="7" rx="1" fill="#787880" fill-opacity="0.16"/>
<rect x="149.4" y="24" width="7" height="7" rx="1" fill="#787880" fill-opacity="0.16"/>
<rect x="158" y="24" width="7" height="7" rx="1" fill="#787880" fill-opacity="0.16"/>
<rect x="166.6" y="24" width="7" height="7" rx="1" fill="#787880" fill-opacity="0.16"/>
<rect x="175.2" y="24" width="7" height="7" rx="1" fill="#787880" fill-opacity="0.16"/>
<rect x="183.8" y="24" width="7" height="7" rx="1" fill="#787880" fill-opacity="0.16"/>
<rect x="192.4" y="24" width="7" height="7" rx="1" fill="#787880" fill-opacity="0.16"/>
<rect x="201" y="24" width="7" height="7" rx="1" fill="#787880" fill-opacity="0.16"/>
<rect x="209.6" y="24" width="7" height="7" rx="1" fill="#73BFBC"/>
<rect x="218.2" y="24" width="7" height="7" rx="1" fill="#256664"/>
<rect x="226.8" y="24" width="7" height="7" rx="1" fill="#787880" fill-opacity="0.16"/>
<rect x="235.4" y="24" width="7" height="7" rx="1" fill="#787880" fill-opacity="0.16"/>
<rect x="244" y="24" width="7" height="7" rx="1" fill="#214F4D"/>
<rect x="252.6" y="24" width="7" height="7" rx="1" fill="#73BFBC"/>
<rect x="261.2" y="24" width="7" height="7" rx="1" fill="#787880" fill-opacity="0.16"/>
<rect x="269.8" y="24" width="7" height="7" rx="1" fill="#787880" fill-opacity="0.16"/>
<rect x="278.4" y="24" width="7" height="7" rx="1" fill="#787880" fill-opacity="0.16"/>
<rect x="287" y="24" width="7" height="7" rx="1" fill="#787880" fill-opacity="0.16"/>
<rect x="295.6" y="24" width="7" height="7" rx="1" fill="#787880" fill-opacity="0.16"/>
<rect x="304.2" y="24" width="7" height="7" rx="1" fill="#787880" fill-opacity="0.16"/>
<rect x="312.8" y="24" width="7" height="7" rx="1" fill="#256664"/>
<rect x="321.4" y="24" width="7" height="7" rx="1" fill="#787880" fill-opacity="0.16"/>
<rect x="330" y="24" width="7" height="7" rx="1" fill="#787880" fill-opacity="0.16"/>
<rect x="338.6" y="24" width="7" height="7" rx="1" fill="#787880" fill-opacity="0.16"/>
<rect x="347.2" y="24" width="7" height="7" rx="1" fill="#787880" fill-opacity="0.16"/>
<rect x="355.8" y="24" width="7" height="7" rx="1" fill="#787880" fill-opacity="0.16"/>
<rect x="364.4" y="24" width="7" height="7" rx="1" fill="#787880" fill-opacity="0.16"/>
<rect x="373" y="24" width="7" height="7" rx="1" fill="#787880" fill-opacity="0.16"/>
<rect x="381.6" y="24" width="7" height="7" rx="1" fill="#214F4D"/>
<rect x="390.2" y="24" width="7" height="7" rx="1" fill="#214F4D"/>
<rect x="398.8" y="24" width="7" height="7" rx="1" fill="#787880" fill-opacity="0.16"/>
<rect x="407.4" y="24" width="7" height="7" rx="1" fill="#787880" fill-opacity="0.16"/>
<rect x="416" y="24" width="7" height="7" rx="1" fill="#787880" fill-opacity="0.16"/>
<rect x="424.6" y="24" width="7" height="7" rx="1" fill="#787880" fill-opacity="0.16"/>
<rect x="433.2" y="24" width="7" height="7" rx="1" fill="#787880" fill-opacity="0.16"/>
<rect x="29" y="32.6" width="7" height="7" rx="1" fill="#787880" fill-opacity="0.16"/>
<rect x="37.6001" y="32.6" width="7" height="7" rx="1" fill="#787880" fill-opacity="0.16"/>
<rect x="46.2" y="32.6" width="7" height="7" rx="1" fill="#787880" fill-opacity="0.16"/>
<rect x="54.8" y="32.6" width="7" height="7" rx="1" fill="#787880" fill-opacity="0.16"/>
<rect x="63.3999" y="32.6" width="7" height="7" rx="1" fill="#787880" fill-opacity="0.16"/>
<rect x="72" y="32.6" width="7" height="7" rx="1" fill="#787880" fill-opacity="0.16"/>
<rect x="80.6001" y="32.6" width="7" height="7" rx="1" fill="#787880" fill-opacity="0.16"/>
<rect x="89.2" y="32.6" width="7" height="7" rx="1" fill="#787880" fill-opacity="0.16"/>
<rect x="97.8" y="32.6" width="7" height="7" rx="1" fill="#787880" fill-opacity="0.16"/>
<rect x="106.4" y="32.6" width="7" height="7" rx="1" fill="#787880" fill-opacity="0.16"/>
<rect x="115" y="32.6" width="7" height="7" rx="1" fill="#787880" fill-opacity="0.16"/>
<rect x="123.6" y="32.6" width="7" height="7" rx="1" fill="#787880" fill-opacity="0.16"/>
<rect x="132.2" y="32.6" width="7" height="7" rx="1" fill="#787880" fill-opacity="0.16"/>
<rect x="140.8" y="32.6" width="7" height="7" rx="1" fill="#787880" fill-opacity="0.16"/>
<rect x="149.4" y="32.6" width="7" height="7" rx="1" fill="#787880" fill-opacity="0.16"/>
<rect x="158" y="32.6" width="7" height="7" rx="1" fill="#787880" fill-opacity="0.16"/>
<rect x="166.6" y="32.6" width="7" height="7" rx="1" fill="#73BFBC"/>
<rect x="175.2" y="32.6" width="7" height="7" rx="1" fill="#787880" fill-opacity="0.16"/>
<rect x="183.8" y="32.6" width="7" height="7" rx="1" fill="#787880" fill-opacity="0.16"/>
<rect x="192.4" y="32.6" width="7" height="7" rx="1" fill="#787880" fill-opacity="0.16"/>
<rect x="201" y="32.6" width="7" height="7" rx="1" fill="#787880" fill-opacity="0.16"/>
<rect x="209.6" y="32.6" width="7" height="7" rx="1" fill="#787880" fill-opacity="0.16"/>
<rect x="218.2" y="32.6" width="7" height="7" rx="1" fill="#787880" fill-opacity="0.16"/>
<rect x="226.8" y="32.6" width="7" height="7" rx="1" fill="#787880" fill-opacity="0.16"/>
<rect x="235.4" y="32.6" width="7" height="7" rx="1" fill="#787880" fill-opacity="0.16"/>
<rect x="244" y="32.6" width="7" height="7" rx="1" fill="#256664"/>
<rect x="252.6" y="32.6" width="7" height="7" rx="1" fill="#214F4D"/>
<rect x="261.2" y="32.6" width="7" height="7" rx="1" fill="#787880" fill-opacity="0.16"/>
<rect x="269.8" y="32.6" width="7" height="7" rx="1" fill="#214F4D"/>
<rect x="278.4" y="32.6" width="7" height="7" rx="1" fill="#256664"/>
<rect x="287" y="32.6" width="7" height="7" rx="1" fill="#73BFBC"/>
<rect x="295.6" y="32.6" width="7" height="7" rx="1" fill="#214F4D"/>
<rect x="304.2" y="32.6" width="7" height="7" rx="1" fill="#787880" fill-opacity="0.16"/>
<rect x="312.8" y="32.6" width="7" height="7" rx="1" fill="#787880" fill-opacity="0.16"/>
<rect x="321.4" y="32.6" width="7" height="7" rx="1" fill="#787880" fill-opacity="0.16"/>
<rect x="330" y="32.6" width="7" height="7" rx="1" fill="#73BFBC"/>
<rect x="338.6" y="32.6" width="7" height="7" rx="1" fill="#214F4D"/>
<rect x="347.2" y="32.6" width="7" height="7" rx="1" fill="#787880" fill-opacity="0.16"/>
<rect x="355.8" y="32.6" width="7" height="7" rx="1" fill="#787880" fill-opacity="0.16"/>
<rect x="364.4" y="32.6" width="7" height="7" rx="1" fill="#787880" fill-opacity="0.16"/>
<rect x="373" y="32.6" width="7" height="7" rx="1" fill="#214F4D"/>
<rect x="381.6" y="32.6" width="7" height="7" rx="1" fill="#214F4D"/>
<rect x="390.2" y="32.6" width="7" height="7" rx="1" fill="#787880" fill-opacity="0.16"/>
<rect x="398.8" y="32.6" width="7" height="7" rx="1" fill="#787880" fill-opacity="0.16"/>
<rect x="407.4" y="32.6" width="7" height="7" rx="1" fill="#787880" fill-opacity="0.16"/>
<rect x="416" y="32.6" width="7" height="7" rx="1" fill="#787880" fill-opacity="0.16"/>
<rect x="424.6" y="32.6" width="7" height="7" rx="1" fill="#787880" fill-opacity="0.16"/>
<rect x="433.2" y="32.6" width="7" height="7" rx="1" fill="#787880" fill-opacity="0.16"/>
<rect x="29" y="41.2" width="7" height="7" rx="1" fill="#787880" fill-opacity="0.16"/>
<rect x="37.6001" y="41.2" width="7" height="7" rx="1" fill="#787880" fill-opacity="0.16"/>
<rect x="46.2" y="41.2" width="7" height="7" rx="1" fill="#787880" fill-opacity="0.16"/>
<rect x="54.8" y="41.2" width="7" height="7" rx="1" fill="#787880" fill-opacity="0.16"/>
<rect x="63.3999" y="41.2" width="7" height="7" rx="1" fill="#787880" fill-opacity="0.16"/>
<rect x="72" y="41.2" width="7" height="7" rx="1" fill="#787880" fill-opacity="0.16"/>
<rect x="80.6001" y="41.2" width="7" height="7" rx="1" fill="#787880" fill-opacity="0.16"/>
<rect x="89.2" y="41.2" width="7" height="7" rx="1" fill="#787880" fill-opacity="0.16"/>
<rect x="97.8" y="41.2" width="7" height="7" rx="1" fill="#787880" fill-opacity="0.16"/>
<rect x="106.4" y="41.2" width="7" height="7" rx="1" fill="#787880" fill-opacity="0.16"/>
<rect x="115" y="41.2" width="7" height="7" rx="1" fill="#787880" fill-opacity="0.16"/>
<rect x="123.6" y="41.2" width="7" height="7" rx="1" fill="#787880" fill-opacity="0.16"/>
<rect x="132.2" y="41.2" width="7" height="7" rx="1" fill="#787880" fill-opacity="0.16"/>
<rect x="140.8" y="41.2" width="7" height="7" rx="1" fill="#787880" fill-opacity="0.16"/>
<rect x="149.4" y="41.2" width="7" height="7" rx="1" fill="#787880" fill-opacity="0.16"/>
<rect x="158" y="41.2" width="7" height="7" rx="1" fill="#787880" fill-opacity="0.16"/>
<rect x="166.6" y="41.2" width="7" height="7" rx="1" fill="#787880" fill-opacity="0.16"/>
<rect x="175.2" y="41.2" width="7" height="7" rx="1" fill="#787880" fill-opacity="0.16"/>
<rect x="183.8" y="41.2" width="7" height="7" rx="1" fill="#787880" fill-opacity="0.16"/>
<rect x="192.4" y="41.2" width="7" height="7" rx="1" fill="#787880" fill-opacity="0.16"/>
<rect x="201" y="41.2" width="7" height="7" rx="1" fill="#787880" fill-opacity="0.16"/>
<rect x="209.6" y="41.2" width="7" height="7" rx="1" fill="#73BFBC"/>
<rect x="218.2" y="41.2" width="7" height="7" rx="1" fill="#787880" fill-opacity="0.16"/>
<rect x="226.8" y="41.2" width="7" height="7" rx="1" fill="#787880" fill-opacity="0.16"/>
<rect x="235.4" y="41.2" width="7" height="7" rx="1" fill="#73BFBC"/>
<rect x="244" y="41.2" width="7" height="7" rx="1" fill="#787880" fill-opacity="0.16"/>
<rect x="252.6" y="41.2" width="7" height="7" rx="1" fill="#787880" fill-opacity="0.16"/>
<rect x="261.2" y="41.2" width="7" height="7" rx="1" fill="#787880" fill-opacity="0.16"/>
<rect x="269.8" y="41.2" width="7" height="7" rx="1" fill="#73BFBC"/>
<rect x="278.4" y="41.2" width="7" height="7" rx="1" fill="#214F4D"/>
<rect x="287" y="41.2" width="7" height="7" rx="1" fill="#214F4D"/>
<rect x="295.6" y="41.2" width="7" height="7" rx="1" fill="#214F4D"/>
<rect x="304.2" y="41.2" width="7" height="7" rx="1" fill="#787880" fill-opacity="0.16"/>
<rect x="312.8" y="41.2" width="7" height="7" rx="1" fill="#73BFBC"/>
<rect x="321.4" y="41.2" width="7" height="7" rx="1" fill="#256664"/>
<rect x="330" y="41.2" width="7" height="7" rx="1" fill="#256664"/>
<rect x="338.6" y="41.2" width="7" height="7" rx="1" fill="#214F4D"/>
<rect x="347.2" y="41.2" width="7" height="7" rx="1" fill="#787880" fill-opacity="0.16"/>
<rect x="355.8" y="41.2" width="7" height="7" rx="1" fill="#787880" fill-opacity="0.16"/>
<rect x="364.4" y="41.2" width="7" height="7" rx="1" fill="#787880" fill-opacity="0.16"/>
<rect x="373" y="41.2" width="7" height="7" rx="1" fill="#787880" fill-opacity="0.16"/>
<rect x="381.6" y="41.2" width="7" height="7" rx="1" fill="#256664"/>
<rect x="390.2" y="41.2" width="7" height="7" rx="1" fill="#787880" fill-opacity="0.16"/>
<rect x="398.8" y="41.2" width="7" height="7" rx="1" fill="#73BFBC"/>
<rect x="407.4" y="41.2" width="7" height="7" rx="1" fill="#787880" fill-opacity="0.16"/>
<rect x="416" y="41.2" width="7" height="7" rx="1" fill="#787880" fill-opacity="0.16"/>
<rect x="424.6" y="41.2" width="7" height="7" rx="1" fill="#787880" fill-opacity="0.16"/>
<rect x="433.2" y="41.2" width="7" height="7" rx="1" fill="#787880" fill-opacity="0.16"/>
<rect x="29" y="49.8" width="7" height="7" rx="1" fill="#787880" fill-opacity="0.16"/>
<rect x="37.6001" y="49.8" width="7" height="7" rx="1" fill="#787880" fill-opacity="0.16"/>
<rect x="46.2" y="49.8" width="7" height="7" rx="1" fill="#787880" fill-opacity="0.16"/>
<rect x="54.8" y="49.8" width="7" height="7" rx="1" fill="#787880" fill-opacity="0.16"/>
<rect x="63.3999" y="49.8" width="7" height="7" rx="1" fill="#787880" fill-opacity="0.16"/>
<rect x="72" y="49.8" width="7" height="7" rx="1" fill="#787880" fill-opacity="0.16"/>
<rect x="80.6001" y="49.8" width="7" height="7" rx="1" fill="#787880" fill-opacity="0.16"/>
<rect x="89.2" y="49.8" width="7" height="7" rx="1" fill="#787880" fill-opacity="0.16"/>
<rect x="97.8" y="49.8" width="7" height="7" rx="1" fill="#787880" fill-opacity="0.16"/>
<rect x="106.4" y="49.8" width="7" height="7" rx="1" fill="#787880" fill-opacity="0.16"/>
<rect x="115" y="49.8" width="7" height="7" rx="1" fill="#787880" fill-opacity="0.16"/>
<rect x="123.6" y="49.8" width="7" height="7" rx="1" fill="#787880" fill-opacity="0.16"/>
<rect x="132.2" y="49.8" width="7" height="7" rx="1" fill="#787880" fill-opacity="0.16"/>
<rect x="140.8" y="49.8" width="7" height="7" rx="1" fill="#787880" fill-opacity="0.16"/>
<rect x="149.4" y="49.8" width="7" height="7" rx="1" fill="#787880" fill-opacity="0.16"/>
<rect x="158" y="49.8" width="7" height="7" rx="1" fill="#787880" fill-opacity="0.16"/>
<rect x="166.6" y="49.8" width="7" height="7" rx="1" fill="#787880" fill-opacity="0.16"/>
<rect x="175.2" y="49.8" width="7" height="7" rx="1" fill="#787880" fill-opacity="0.16"/>
<rect x="183.8" y="49.8" width="7" height="7" rx="1" fill="#787880" fill-opacity="0.16"/>
<rect x="192.4" y="49.8" width="7" height="7" rx="1" fill="#787880" fill-opacity="0.16"/>
<rect x="201" y="49.8" width="7" height="7" rx="1" fill="#787880" fill-opacity="0.16"/>
<rect x="209.6" y="49.8" width="7" height="7" rx="1" fill="#787880" fill-opacity="0.16"/>
<rect x="218.2" y="49.8" width="7" height="7" rx="1" fill="#787880" fill-opacity="0.16"/>
<rect x="226.8" y="49.8" width="7" height="7" rx="1" fill="#787880" fill-opacity="0.16"/>
<rect x="235.4" y="49.8" width="7" height="7" rx="1" fill="#787880" fill-opacity="0.16"/>
<rect x="244" y="49.8" width="7" height="7" rx="1" fill="#787880" fill-opacity="0.16"/>
<rect x="252.6" y="49.8" width="7" height="7" rx="1" fill="#787880" fill-opacity="0.16"/>
<rect x="261.2" y="49.8" width="7" height="7" rx="1" fill="#787880" fill-opacity="0.16"/>
<rect x="269.8" y="49.8" width="7" height="7" rx="1" fill="#787880" fill-opacity="0.16"/>
<rect x="278.4" y="49.8" width="7" height="7" rx="1" fill="#214F4D"/>
<rect x="287" y="49.8" width="7" height="7" rx="1" fill="#787880" fill-opacity="0.16"/>
<rect x="295.6" y="49.8" width="7" height="7" rx="1" fill="#787880" fill-opacity="0.16"/>
<rect x="304.2" y="49.8" width="7" height="7" rx="1" fill="#787880" fill-opacity="0.16"/>
<rect x="312.8" y="49.8" width="7" height="7" rx="1" fill="#787880" fill-opacity="0.16"/>
<rect x="321.4" y="49.8" width="7" height="7" rx="1" fill="#787880" fill-opacity="0.16"/>
<rect x="330" y="49.8" width="7" height="7" rx="1" fill="#787880" fill-opacity="0.16"/>
<rect x="338.6" y="49.8" width="7" height="7" rx="1" fill="#214F4D"/>
<rect x="347.2" y="49.8" width="7" height="7" rx="1" fill="#787880" fill-opacity="0.16"/>
<rect x="355.8" y="49.8" width="7" height="7" rx="1" fill="#787880" fill-opacity="0.16"/>
<rect x="364.4" y="49.8" width="7" height="7" rx="1" fill="#787880" fill-opacity="0.16"/>
<rect x="373" y="49.8" width="7" height="7" rx="1" fill="#214F4D"/>
<rect x="381.6" y="49.8" width="7" height="7" rx="1" fill="#787880" fill-opacity="0.16"/>
<rect x="390.2" y="49.8" width="7" height="7" rx="1" fill="#787880" fill-opacity="0.16"/>
<rect x="398.8" y="49.8" width="7" height="7" rx="1" fill="#256664"/>
<rect x="407.4" y="49.8" width="7" height="7" rx="1" fill="#787880" fill-opacity="0.16"/>
<rect x="416" y="49.8" width="7" height="7" rx="1" fill="#787880" fill-opacity="0.16"/>
<rect x="424.6" y="49.8" width="7" height="7" rx="1" fill="#787880" fill-opacity="0.16"/>
<rect x="433.2" y="49.8" width="7" height="7" rx="1" fill="#787880" fill-opacity="0.16"/>
<rect x="29" y="58.4" width="7" height="7" rx="1" fill="#787880" fill-opacity="0.16"/>
<rect x="37.6001" y="58.4" width="7" height="7" rx="1" fill="#787880" fill-opacity="0.16"/>
<rect x="46.2" y="58.4" width="7" height="7" rx="1" fill="#787880" fill-opacity="0.16"/>
<rect x="54.8" y="58.4" width="7" height="7" rx="1" fill="#787880" fill-opacity="0.16"/>
<rect x="63.3999" y="58.4" width="7" height="7" rx="1" fill="#787880" fill-opacity="0.16"/>
<rect x="72" y="58.4" width="7" height="7" rx="1" fill="#787880" fill-opacity="0.16"/>
<rect x="80.6001" y="58.4" width="7" height="7" rx="1" fill="#787880" fill-opacity="0.16"/>
<rect x="89.2" y="58.4" width="7" height="7" rx="1" fill="#787880" fill-opacity="0.16"/>
<rect x="97.8" y="58.4" width="7" height="7" rx="1" fill="#787880" fill-opacity="0.16"/>
<rect x="106.4" y="58.4" width="7" height="7" rx="1" fill="#787880" fill-opacity="0.16"/>
<rect x="115" y="58.4" width="7" height="7" rx="1" fill="#787880" fill-opacity="0.16"/>
<rect x="123.6" y="58.4" width="7" height="7" rx="1" fill="#787880" fill-opacity="0.16"/>
<rect x="132.2" y="58.4" width="7" height="7" rx="1" fill="#787880" fill-opacity="0.16"/>
<rect x="140.8" y="58.4" width="7" height="7" rx="1" fill="#787880" fill-opacity="0.16"/>
<rect x="149.4" y="58.4" width="7" height="7" rx="1" fill="#787880" fill-opacity="0.16"/>
<rect x="158" y="58.4" width="7" height="7" rx="1" fill="#787880" fill-opacity="0.16"/>
<rect x="166.6" y="58.4" width="7" height="7" rx="1" fill="#787880" fill-opacity="0.16"/>
<rect x="175.2" y="58.4" width="7" height="7" rx="1" fill="#787880" fill-opacity="0.16"/>
<rect x="183.8" y="58.4" width="7" height="7" rx="1" fill="#787880" fill-opacity="0.16"/>
<rect x="192.4" y="58.4" width="7" height="7" rx="1" fill="#787880" fill-opacity="0.16"/>
<rect x="201" y="58.4" width="7" height="7" rx="1" fill="#787880" fill-opacity="0.16"/>
<rect x="209.6" y="58.4" width="7" height="7" rx="1" fill="#787880" fill-opacity="0.16"/>
<rect x="218.2" y="58.4" width="7" height="7" rx="1" fill="#787880" fill-opacity="0.16"/>
<rect x="226.8" y="58.4" width="7" height="7" rx="1" fill="#787880" fill-opacity="0.16"/>
<rect x="235.4" y="58.4" width="7" height="7" rx="1" fill="#787880" fill-opacity="0.16"/>
<rect x="244" y="58.4" width="7" height="7" rx="1" fill="#787880" fill-opacity="0.16"/>
<rect x="252.6" y="58.4" width="7" height="7" rx="1" fill="#787880" fill-opacity="0.16"/>
<rect x="261.2" y="58.4" width="7" height="7" rx="1" fill="#787880" fill-opacity="0.16"/>
<rect x="269.8" y="58.4" width="7" height="7" rx="1" fill="#787880" fill-opacity="0.16"/>
<rect x="278.4" y="58.4" width="7" height="7" rx="1" fill="#787880" fill-opacity="0.16"/>
<rect x="287" y="58.4" width="7" height="7" rx="1" fill="#787880" fill-opacity="0.16"/>
<rect x="295.6" y="58.4" width="7" height="7" rx="1" fill="#787880" fill-opacity="0.16"/>
<rect x="304.2" y="58.4" width="7" height="7" rx="1" fill="#73BFBC"/>
<rect x="312.8" y="58.4" width="7" height="7" rx="1" fill="#787880" fill-opacity="0.16"/>
<rect x="321.4" y="58.4" width="7" height="7" rx="1" fill="#73BFBC"/>
<rect x="330" y="58.4" width="7" height="7" rx="1" fill="#787880" fill-opacity="0.16"/>
<rect x="338.6" y="58.4" width="7" height="7" rx="1" fill="#787880" fill-opacity="0.16"/>
<rect x="347.2" y="58.4" width="7" height="7" rx="1" fill="#787880" fill-opacity="0.16"/>
<rect x="355.8" y="58.4" width="7" height="7" rx="1" fill="#73BFBC"/>
<rect x="364.4" y="58.4" width="7" height="7" rx="1" fill="#256664"/>
<rect x="373" y="58.4" width="7" height="7" rx="1" fill="#787880" fill-opacity="0.16"/>
<rect x="381.6" y="58.4" width="7" height="7" rx="1" fill="#256664"/>
<rect x="390.2" y="58.4" width="7" height="7" rx="1" fill="#73BFBC"/>
<rect x="398.8" y="58.4" width="7" height="7" rx="1" fill="#787880" fill-opacity="0.16"/>
<rect x="407.4" y="58.4" width="7" height="7" rx="1" fill="#787880" fill-opacity="0.16"/>
<rect x="416" y="58.4" width="7" height="7" rx="1" fill="#787880" fill-opacity="0.16"/>
<rect x="424.6" y="58.4" width="7" height="7" rx="1" fill="#787880" fill-opacity="0.16"/>
<rect x="433.2" y="58.4" width="7" height="7" rx="1" fill="#787880" fill-opacity="0.16"/>
<rect x="29" y="67" width="7" height="7" rx="1" fill="#787880" fill-opacity="0.16"/>
<rect x="37.6001" y="67" width="7" height="7" rx="1" fill="#787880" fill-opacity="0.16"/>
<rect x="46.2" y="67" width="7" height="7" rx="1" fill="#787880" fill-opacity="0.16"/>
<rect x="54.8" y="67" width="7" height="7" rx="1" fill="#787880" fill-opacity="0.16"/>
<rect x="63.3999" y="67" width="7" height="7" rx="1" fill="#787880" fill-opacity="0.16"/>
<rect x="72" y="67" width="7" height="7" rx="1" fill="#787880" fill-opacity="0.16"/>
<rect x="80.6001" y="67" width="7" height="7" rx="1" fill="#787880" fill-opacity="0.16"/>
<rect x="89.2" y="67" width="7" height="7" rx="1" fill="#787880" fill-opacity="0.16"/>
<rect x="97.8" y="67" width="7" height="7" rx="1" fill="#787880" fill-opacity="0.16"/>
<rect x="106.4" y="67" width="7" height="7" rx="1" fill="#787880" fill-opacity="0.16"/>
<rect x="115" y="67" width="7" height="7" rx="1" fill="#787880" fill-opacity="0.16"/>
<rect x="123.6" y="67" width="7" height="7" rx="1" fill="#787880" fill-opacity="0.16"/>
<rect x="132.2" y="67" width="7" height="7" rx="1" fill="#787880" fill-opacity="0.16"/>
<rect x="140.8" y="67" width="7" height="7" rx="1" fill="#787880" fill-opacity="0.16"/>
<rect x="149.4" y="67" width="7" height="7" rx="1" fill="#787880" fill-opacity="0.16"/>
<rect x="158" y="67" width="7" height="7" rx="1" fill="#787880" fill-opacity="0.16"/>
<rect x="166.6" y="67" width="7" height="7" rx="1" fill="#787880" fill-opacity="0.16"/>
<rect x="175.2" y="67" width="7" height="7" rx="1" fill="#787880" fill-opacity="0.16"/>
<rect x="183.8" y="67" width="7" height="7" rx="1" fill="#787880" fill-opacity="0.16"/>
<rect x="192.4" y="67" width="7" height="7" rx="1" fill="#787880" fill-opacity="0.16"/>
<rect x="201" y="67" width="7" height="7" rx="1" fill="#787880" fill-opacity="0.16"/>
<rect x="209.6" y="67" width="7" height="7" rx="1" fill="#787880" fill-opacity="0.16"/>
<rect x="218.2" y="67" width="7" height="7" rx="1" fill="#787880" fill-opacity="0.16"/>
<rect x="226.8" y="67" width="7" height="7" rx="1" fill="#787880" fill-opacity="0.16"/>
<rect x="235.4" y="67" width="7" height="7" rx="1" fill="#787880" fill-opacity="0.16"/>
<rect x="244" y="67" width="7" height="7" rx="1" fill="#787880" fill-opacity="0.16"/>
<rect x="252.6" y="67" width="7" height="7" rx="1" fill="#73BFBC"/>
<rect x="261.2" y="67" width="7" height="7" rx="1" fill="#787880" fill-opacity="0.16"/>
<rect x="269.8" y="67" width="7" height="7" rx="1" fill="#787880" fill-opacity="0.16"/>
<rect x="278.4" y="67" width="7" height="7" rx="1" fill="#73BFBC"/>
<rect x="287" y="67" width="7" height="7" rx="1" fill="#787880" fill-opacity="0.16"/>
<rect x="295.6" y="67" width="7" height="7" rx="1" fill="#787880" fill-opacity="0.16"/>
<rect x="304.2" y="67" width="7" height="7" rx="1" fill="#787880" fill-opacity="0.16"/>
<rect x="312.8" y="67" width="7" height="7" rx="1" fill="#787880" fill-opacity="0.16"/>
<rect x="321.4" y="67" width="7" height="7" rx="1" fill="#787880" fill-opacity="0.16"/>
<rect x="330" y="67" width="7" height="7" rx="1" fill="#787880" fill-opacity="0.16"/>
<rect x="338.6" y="67" width="7" height="7" rx="1" fill="#787880" fill-opacity="0.16"/>
<rect x="347.2" y="67" width="7" height="7" rx="1" fill="#787880" fill-opacity="0.16"/>
<rect x="355.8" y="67" width="7" height="7" rx="1" fill="#787880" fill-opacity="0.16"/>
<rect x="364.4" y="67" width="7" height="7" rx="1" fill="#787880" fill-opacity="0.16"/>
<rect x="373" y="67" width="7" height="7" rx="1" fill="#73BFBC"/>
<rect x="381.6" y="67" width="7" height="7" rx="1" fill="#787880" fill-opacity="0.16"/>
<rect x="390.2" y="67" width="7" height="7" rx="1" fill="#787880" fill-opacity="0.16"/>
<rect x="398.8" y="67" width="7" height="7" rx="1" fill="#787880" fill-opacity="0.16"/>
<rect x="407.4" y="67" width="7" height="7" rx="1" fill="#787880" fill-opacity="0.16"/>
<rect x="416" y="67" width="7" height="7" rx="1" fill="#787880" fill-opacity="0.16"/>
<rect x="424.6" y="67" width="7" height="7" rx="1" fill="#787880" fill-opacity="0.16"/>
<rect x="433.2" y="67" width="7" height="7" rx="1" fill="#787880" fill-opacity="0.16"/>
<rect x="29" y="75.6" width="7" height="7" rx="1" fill="#787880" fill-opacity="0.16"/>
<rect x="37.6001" y="75.6" width="7" height="7" rx="1" fill="#787880" fill-opacity="0.16"/>
<rect x="46.2" y="75.6" width="7" height="7" rx="1" fill="#787880" fill-opacity="0.16"/>
<rect x="54.8" y="75.6" width="7" height="7" rx="1" fill="#787880" fill-opacity="0.16"/>
<rect x="63.3999" y="75.6" width="7" height="7" rx="1" fill="#787880" fill-opacity="0.16"/>
<rect x="72" y="75.6" width="7" height="7" rx="1" fill="#787880" fill-opacity="0.16"/>
<rect x="80.6001" y="75.6" width="7" height="7" rx="1" fill="#787880" fill-opacity="0.16"/>
<rect x="89.2" y="75.6" width="7" height="7" rx="1" fill="#787880" fill-opacity="0.16"/>
<rect x="97.8" y="75.6" width="7" height="7" rx="1" fill="#787880" fill-opacity="0.16"/>
<rect x="106.4" y="75.6" width="7" height="7" rx="1" fill="#787880" fill-opacity="0.16"/>
<rect x="115" y="75.6" width="7" height="7" rx="1" fill="#787880" fill-opacity="0.16"/>
<rect x="123.6" y="75.6" width="7" height="7" rx="1" fill="#787880" fill-opacity="0.16"/>
<rect x="132.2" y="75.6" width="7" height="7" rx="1" fill="#787880" fill-opacity="0.16"/>
<rect x="140.8" y="75.6" width="7" height="7" rx="1" fill="#787880" fill-opacity="0.16"/>
<rect x="149.4" y="75.6" width="7" height="7" rx="1" fill="#787880" fill-opacity="0.16"/>
<rect x="158" y="75.6" width="7" height="7" rx="1" fill="#787880" fill-opacity="0.16"/>
<rect x="166.6" y="75.6" width="7" height="7" rx="1" fill="#787880" fill-opacity="0.16"/>
<rect x="175.2" y="75.6" width="7" height="7" rx="1" fill="#787880" fill-opacity="0.16"/>
<rect x="183.8" y="75.6" width="7" height="7" rx="1" fill="#787880" fill-opacity="0.16"/>
<rect x="192.4" y="75.6" width="7" height="7" rx="1" fill="#787880" fill-opacity="0.16"/>
<rect x="201" y="75.6" width="7" height="7" rx="1" fill="#787880" fill-opacity="0.16"/>
<rect x="209.6" y="75.6" width="7" height="7" rx="1" fill="#787880" fill-opacity="0.16"/>
<rect x="218.2" y="75.6" width="7" height="7" rx="1" fill="#787880" fill-opacity="0.16"/>
<rect x="226.8" y="75.6" width="7" height="7" rx="1" fill="#787880" fill-opacity="0.16"/>
<rect x="235.4" y="75.6" width="7" height="7" rx="1" fill="#787880" fill-opacity="0.16"/>
<rect x="244" y="75.6" width="7" height="7" rx="1" fill="#787880" fill-opacity="0.16"/>
<rect x="252.6" y="75.6" width="7" height="7" rx="1" fill="#787880" fill-opacity="0.16"/>
<rect x="261.2" y="75.6" width="7" height="7" rx="1" fill="#787880" fill-opacity="0.16"/>
<rect x="269.8" y="75.6" width="7" height="7" rx="1" fill="#787880" fill-opacity="0.16"/>
<rect x="278.4" y="75.6" width="7" height="7" rx="1" fill="#787880" fill-opacity="0.16"/>
<rect x="287" y="75.6" width="7" height="7" rx="1" fill="#787880" fill-opacity="0.16"/>
<rect x="295.6" y="75.6" width="7" height="7" rx="1" fill="#787880" fill-opacity="0.16"/>
<rect x="304.2" y="75.6" width="7" height="7" rx="1" fill="#787880" fill-opacity="0.16"/>
<rect x="312.8" y="75.6" width="7" height="7" rx="1" fill="#787880" fill-opacity="0.16"/>
<rect x="321.4" y="75.6" width="7" height="7" rx="1" fill="#787880" fill-opacity="0.16"/>
<rect x="330" y="75.6" width="7" height="7" rx="1" fill="#787880" fill-opacity="0.16"/>
<rect x="338.6" y="75.6" width="7" height="7" rx="1" fill="#787880" fill-opacity="0.16"/>
<rect x="347.2" y="75.6" width="7" height="7" rx="1" fill="#787880" fill-opacity="0.16"/>
<rect x="355.8" y="75.6" width="7" height="7" rx="1" fill="#787880" fill-opacity="0.16"/>
<rect x="364.4" y="75.6" width="7" height="7" rx="1" fill="#787880" fill-opacity="0.16"/>
<rect x="373" y="75.6" width="7" height="7" rx="1" fill="#787880" fill-opacity="0.16"/>
<rect x="381.6" y="75.6" width="7" height="7" rx="1" fill="#787880" fill-opacity="0.16"/>
<rect x="390.2" y="75.6" width="7" height="7" rx="1" fill="#787880" fill-opacity="0.16"/>
<rect x="398.8" y="75.6" width="7" height="7" rx="1" fill="#787880" fill-opacity="0.16"/>
<rect x="407.4" y="75.6" width="7" height="7" rx="1" fill="#787880" fill-opacity="0.16"/>
<rect x="416" y="75.6" width="7" height="7" rx="1" fill="#787880" fill-opacity="0.16"/>
<rect x="424.6" y="75.6" width="7" height="7" rx="1" fill="#787880" fill-opacity="0.16"/>
<rect x="433.2" y="75.6" width="7" height="7" rx="1" fill="#787880" fill-opacity="0.16"/>
<g clip-path="url(#clip0_4093_986)">
<path d="M30.8714 93L29.1811 86.8182H29.9418L31.2337 91.853H31.294L32.6101 86.8182H33.4553L34.7713 91.853H34.8317L36.1236 86.8182H36.8842L35.1939 93H34.4212L33.0568 88.0739H33.0085L31.6442 93H30.8714ZM39.2326 93.0966C38.7859 93.0966 38.4005 92.998 38.0765 92.8008C37.7546 92.6016 37.506 92.3239 37.331 91.9677C37.1579 91.6095 37.0714 91.1929 37.0714 90.718C37.0714 90.2431 37.1579 89.8246 37.331 89.4624C37.506 89.0981 37.7495 88.8144 38.0614 88.6112C38.3754 88.4059 38.7416 88.3033 39.1602 88.3033C39.4016 88.3033 39.6401 88.3435 39.8755 88.424C40.111 88.5045 40.3253 88.6353 40.5185 88.8164C40.7116 88.9955 40.8656 89.233 40.9803 89.5288C41.095 89.8246 41.1523 90.1888 41.1523 90.6214V90.9233H37.5785V90.3075H40.4279C40.4279 90.0459 40.3756 89.8125 40.271 89.6072C40.1683 89.402 40.0214 89.24 39.8303 89.1213C39.6411 89.0025 39.4177 88.9432 39.1602 88.9432C38.8764 88.9432 38.6309 89.0136 38.4237 89.1545C38.2184 89.2933 38.0604 89.4744 37.9498 89.6978C37.8391 89.9212 37.7837 90.1606 37.7837 90.4162V90.8267C37.7837 91.1768 37.8441 91.4737 37.9648 91.7172C38.0876 91.9586 38.2576 92.1428 38.475 92.2695C38.6923 92.3943 38.9448 92.4567 39.2326 92.4567C39.4197 92.4567 39.5888 92.4305 39.7397 92.3782C39.8926 92.3239 40.0244 92.2434 40.1351 92.1367C40.2458 92.0281 40.3313 91.8932 40.3917 91.7322L41.0799 91.9254C41.0075 92.1589 40.8857 92.3641 40.7147 92.5412C40.5436 92.7163 40.3323 92.8531 40.0808 92.9517C39.8292 93.0483 39.5465 93.0966 39.2326 93.0966ZM44.1799 93.0966C43.7331 93.0966 43.3478 92.998 43.0238 92.8008C42.7018 92.6016 42.4533 92.3239 42.2782 91.9677C42.1052 91.6095 42.0186 91.1929 42.0186 90.718C42.0186 90.2431 42.1052 89.8246 42.2782 89.4624C42.4533 89.0981 42.6968 88.8144 43.0087 88.6112C43.3226 88.4059 43.6889 88.3033 44.1074 88.3033C44.3489 88.3033 44.5874 88.3435 44.8228 88.424C45.0582 88.5045 45.2725 88.6353 45.4657 88.8164C45.6589 88.9955 45.8129 89.233 45.9276 89.5288C46.0423 89.8246 46.0996 90.1888 46.0996 90.6214V90.9233H42.5257V90.3075H45.3752C45.3752 90.0459 45.3229 89.8125 45.2182 89.6072C45.1156 89.402 44.9687 89.24 44.7775 89.1213C44.5884 89.0025 44.365 88.9432 44.1074 88.9432C43.8237 88.9432 43.5782 89.0136 43.3709 89.1545C43.1657 89.2933 43.0077 89.4744 42.897 89.6978C42.7863 89.9212 42.731 90.1606 42.731 90.4162V90.8267C42.731 91.1768 42.7914 91.4737 42.9121 91.7172C43.0349 91.9586 43.2049 92.1428 43.4222 92.2695C43.6396 92.3943 43.8921 92.4567 44.1799 92.4567C44.367 92.4567 44.536 92.4305 44.687 92.3782C44.8399 92.3239 44.9717 92.2434 45.0824 92.1367C45.1931 92.0281 45.2786 91.8932 45.339 91.7322L46.0272 91.9254C45.9547 92.1589 45.833 92.3641 45.6619 92.5412C45.4909 92.7163 45.2796 92.8531 45.0281 92.9517C44.7765 93.0483 44.4938 93.0966 44.1799 93.0966ZM47.8473 91.3097L47.8352 90.4283H47.9801L50.0085 88.3636H50.8899L48.7287 90.549H48.6683L47.8473 91.3097ZM47.1832 93V86.8182H47.8956V93H47.1832ZM50.1293 93L48.3182 90.706L48.8253 90.2109L51.0348 93H50.1293ZM52.5191 86.8182V93H51.8068V86.8182H52.5191ZM54.2827 94.7386C54.1619 94.7386 54.0543 94.7286 53.9597 94.7085C53.8651 94.6903 53.7997 94.6722 53.7635 94.6541L53.9446 94.0263C54.1177 94.0705 54.2706 94.0866 54.4034 94.0746C54.5362 94.0625 54.6539 94.0031 54.7566 93.8965C54.8612 93.7918 54.9568 93.6218 55.0433 93.3864L55.1761 93.0241L53.4616 88.3636H54.2344L55.5142 92.0582H55.5625L56.8423 88.3636H57.6151L55.647 93.6761C55.5585 93.9156 55.4488 94.1138 55.318 94.2708C55.1872 94.4297 55.0353 94.5475 54.8622 94.6239C54.6912 94.7004 54.498 94.7386 54.2827 94.7386ZM62.8295 93.0966C62.3948 93.0966 62.0205 92.994 61.7066 92.7887C61.3927 92.5835 61.1512 92.3007 60.9822 91.9405C60.8131 91.5803 60.7286 91.1688 60.7286 90.706C60.7286 90.2351 60.8151 89.8195 60.9882 89.4593C61.1633 89.0971 61.4068 88.8144 61.7187 88.6112C62.0326 88.4059 62.3988 88.3033 62.8174 88.3033C63.1434 88.3033 63.4372 88.3636 63.6988 88.4844C63.9604 88.6051 64.1747 88.7741 64.3417 88.9915C64.5087 89.2088 64.6124 89.4624 64.6526 89.7521H63.9403C63.8859 89.5408 63.7652 89.3537 63.578 89.1907C63.3929 89.0257 63.1434 88.9432 62.8295 88.9432C62.5518 88.9432 62.3083 89.0156 62.099 89.1605C61.8917 89.3034 61.7297 89.5056 61.613 89.7672C61.4983 90.0268 61.441 90.3317 61.441 90.6818C61.441 91.04 61.4973 91.3519 61.61 91.6175C61.7247 91.8832 61.8857 92.0894 62.093 92.2363C62.3022 92.3832 62.5477 92.4567 62.8295 92.4567C63.0146 92.4567 63.1826 92.4245 63.3335 92.3601C63.4845 92.2957 63.6122 92.2031 63.7169 92.0824C63.8215 91.9616 63.896 91.8168 63.9403 91.6477H64.6526C64.6124 91.9214 64.5128 92.1679 64.3538 92.3873C64.1968 92.6046 63.9885 92.7776 63.729 92.9064C63.4714 93.0332 63.1715 93.0966 62.8295 93.0966ZM67.5775 93.0966C67.1589 93.0966 66.7917 92.997 66.4758 92.7978C66.1618 92.5985 65.9163 92.3198 65.7393 91.9616C65.5642 91.6035 65.4767 91.1849 65.4767 90.706C65.4767 90.223 65.5642 89.8014 65.7393 89.4412C65.9163 89.081 66.1618 88.8013 66.4758 88.6021C66.7917 88.4029 67.1589 88.3033 67.5775 88.3033C67.9961 88.3033 68.3623 88.4029 68.6762 88.6021C68.9922 88.8013 69.2377 89.081 69.4127 89.4412C69.5898 89.8014 69.6784 90.223 69.6784 90.706C69.6784 91.1849 69.5898 91.6035 69.4127 91.9616C69.2377 92.3198 68.9922 92.5985 68.6762 92.7978C68.3623 92.997 67.9961 93.0966 67.5775 93.0966ZM67.5775 92.4567C67.8954 92.4567 68.157 92.3752 68.3623 92.2122C68.5676 92.0492 68.7195 91.8349 68.8181 91.5692C68.9167 91.3036 68.966 91.0159 68.966 90.706C68.966 90.3961 68.9167 90.1073 68.8181 89.8397C68.7195 89.572 68.5676 89.3557 68.3623 89.1907C68.157 89.0257 67.8954 88.9432 67.5775 88.9432C67.2596 88.9432 66.998 89.0257 66.7927 89.1907C66.5874 89.3557 66.4355 89.572 66.3369 89.8397C66.2383 90.1073 66.189 90.3961 66.189 90.706C66.189 91.0159 66.2383 91.3036 66.3369 91.5692C66.4355 91.8349 66.5874 92.0492 66.7927 92.2122C66.998 92.3752 67.2596 92.4567 67.5775 92.4567ZM71.4781 90.2109V93H70.7658V88.3636H71.454V89.0881H71.5143C71.623 88.8526 71.788 88.6635 72.0094 88.5206C72.2307 88.3757 72.5165 88.3033 72.8666 88.3033C73.1805 88.3033 73.4552 88.3677 73.6907 88.4964C73.9261 88.6232 74.1092 88.8164 74.24 89.076C74.3708 89.3336 74.4362 89.6596 74.4362 90.054V93H73.7239V90.1023C73.7239 89.738 73.6293 89.4543 73.4401 89.2511C73.251 89.0458 72.9914 88.9432 72.6614 88.9432C72.434 88.9432 72.2307 88.9925 72.0516 89.0911C71.8745 89.1897 71.7347 89.3336 71.6321 89.5227C71.5294 89.7119 71.4781 89.9413 71.4781 90.2109ZM77.7543 88.3636V88.9673H75.3516V88.3636H77.7543ZM76.0518 87.2528H76.7642V91.6719C76.7642 91.8731 76.7934 92.024 76.8517 92.1246C76.9121 92.2232 76.9886 92.2897 77.0811 92.3239C77.1757 92.3561 77.2753 92.3722 77.38 92.3722C77.4585 92.3722 77.5228 92.3681 77.5732 92.3601C77.6235 92.35 77.6637 92.342 77.6939 92.3359L77.8388 92.9759C77.7905 92.994 77.7231 93.0121 77.6365 93.0302C77.55 93.0503 77.4403 93.0604 77.3075 93.0604C77.1063 93.0604 76.9091 93.0171 76.7159 92.9306C76.5247 92.844 76.3658 92.7122 76.239 92.5352C76.1142 92.3581 76.0518 92.1347 76.0518 91.8651V87.2528ZM78.8258 93V88.3636H79.514V89.0639H79.5623C79.6468 88.8345 79.7998 88.6484 80.0211 88.5055C80.2425 88.3626 80.492 88.2912 80.7697 88.2912C80.822 88.2912 80.8874 88.2922 80.9659 88.2942C81.0444 88.2962 81.1038 88.2992 81.144 88.3033V89.0277C81.1199 89.0217 81.0645 89.0126 80.978 89.0005C80.8935 88.9864 80.8039 88.9794 80.7093 88.9794C80.484 88.9794 80.2827 89.0267 80.1056 89.1213C79.9306 89.2138 79.7917 89.3426 79.6891 89.5076C79.5885 89.6706 79.5382 89.8568 79.5382 90.0661V93H78.8258ZM81.9884 93V88.3636H82.7008V93H81.9884ZM82.3506 87.5909C82.2118 87.5909 82.092 87.5436 81.9914 87.449C81.8928 87.3545 81.8435 87.2408 81.8435 87.108C81.8435 86.9751 81.8928 86.8614 81.9914 86.7669C82.092 86.6723 82.2118 86.625 82.3506 86.625C82.4895 86.625 82.6082 86.6723 82.7068 86.7669C82.8074 86.8614 82.8577 86.9751 82.8577 87.108C82.8577 87.2408 82.8074 87.3545 82.7068 87.449C82.6082 87.5436 82.4895 87.5909 82.3506 87.5909ZM84.1021 93V86.8182H84.8145V89.1001H84.8748C84.9271 89.0196 84.9996 88.917 85.0922 88.7923C85.1867 88.6655 85.3216 88.5528 85.4966 88.4542C85.6737 88.3536 85.9132 88.3033 86.215 88.3033C86.6054 88.3033 86.9495 88.4009 87.2473 88.5961C87.5452 88.7913 87.7776 89.0679 87.9446 89.4261C88.1116 89.7843 88.1951 90.2069 88.1951 90.6939C88.1951 91.1849 88.1116 91.6105 87.9446 91.9707C87.7776 92.3289 87.5462 92.6066 87.2504 92.8038C86.9545 92.999 86.6135 93.0966 86.2271 93.0966C85.9293 93.0966 85.6908 93.0473 85.5117 92.9487C85.3326 92.8481 85.1948 92.7344 85.0982 92.6076C85.0016 92.4788 84.9271 92.3722 84.8748 92.2876H84.7903V93H84.1021ZM84.8024 90.6818C84.8024 91.032 84.8537 91.3408 84.9563 91.6085C85.0589 91.8741 85.2089 92.0824 85.4061 92.2333C85.6033 92.3822 85.8448 92.4567 86.1305 92.4567C86.4283 92.4567 86.6768 92.3782 86.8761 92.2212C87.0773 92.0623 87.2282 91.849 87.3288 91.5813C87.4315 91.3117 87.4828 91.0118 87.4828 90.6818C87.4828 90.3558 87.4325 90.062 87.3319 89.8004C87.2333 89.5368 87.0833 89.3285 86.8821 89.1756C86.6829 89.0207 86.4324 88.9432 86.1305 88.9432C85.8407 88.9432 85.5972 89.0166 85.4 89.1635C85.2028 89.3084 85.0539 89.5117 84.9533 89.7733C84.8527 90.0328 84.8024 90.3357 84.8024 90.6818ZM92.2067 91.1044V88.3636H92.919V93H92.2067V92.2152H92.1584C92.0497 92.4506 91.8807 92.6509 91.6513 92.8159C91.4219 92.9789 91.1321 93.0604 90.782 93.0604C90.4922 93.0604 90.2346 92.997 90.0092 92.8702C89.7839 92.7414 89.6068 92.5482 89.478 92.2907C89.3492 92.0311 89.2848 91.7041 89.2848 91.3097V88.3636H89.9972V91.2614C89.9972 91.5994 90.0917 91.8691 90.2809 92.0703C90.4721 92.2715 90.7156 92.3722 91.0114 92.3722C91.1884 92.3722 91.3685 92.3269 91.5517 92.2363C91.7368 92.1458 91.8917 92.0069 92.0165 91.8198C92.1433 91.6326 92.2067 91.3942 92.2067 91.1044ZM96.2401 88.3636V88.9673H93.8374V88.3636H96.2401ZM94.5377 87.2528H95.25V91.6719C95.25 91.8731 95.2792 92.024 95.3376 92.1246C95.3979 92.2232 95.4744 92.2897 95.567 92.3239C95.6616 92.3561 95.7612 92.3722 95.8658 92.3722C95.9443 92.3722 96.0087 92.3681 96.059 92.3601C96.1093 92.35 96.1495 92.342 96.1797 92.3359L96.3246 92.9759C96.2763 92.994 96.2089 93.0121 96.1224 93.0302C96.0359 93.0503 95.9262 93.0604 95.7934 93.0604C95.5921 93.0604 95.3949 93.0171 95.2017 92.9306C95.0106 92.844 94.8516 92.7122 94.7248 92.5352C94.6001 92.3581 94.5377 92.1347 94.5377 91.8651V87.2528ZM97.3117 93V88.3636H98.024V93H97.3117ZM97.6739 87.5909C97.535 87.5909 97.4153 87.5436 97.3147 87.449C97.2161 87.3545 97.1668 87.2408 97.1668 87.108C97.1668 86.9751 97.2161 86.8614 97.3147 86.7669C97.4153 86.6723 97.535 86.625 97.6739 86.625C97.8127 86.625 97.9314 86.6723 98.0301 86.7669C98.1307 86.8614 98.181 86.9751 98.181 87.108C98.181 87.2408 98.1307 87.3545 98.0301 87.449C97.9314 87.5436 97.8127 87.5909 97.6739 87.5909ZM101.212 93.0966C100.794 93.0966 100.426 92.997 100.111 92.7978C99.7966 92.5985 99.5511 92.3198 99.374 91.9616C99.199 91.6035 99.1114 91.1849 99.1114 90.706C99.1114 90.223 99.199 89.8014 99.374 89.4412C99.5511 89.081 99.7966 88.8013 100.111 88.6021C100.426 88.4029 100.794 88.3033 101.212 88.3033C101.631 88.3033 101.997 88.4029 102.311 88.6021C102.627 88.8013 102.872 89.081 103.047 89.4412C103.225 89.8014 103.313 90.223 103.313 90.706C103.313 91.1849 103.225 91.6035 103.047 91.9616C102.872 92.3198 102.627 92.5985 102.311 92.7978C101.997 92.997 101.631 93.0966 101.212 93.0966ZM101.212 92.4567C101.53 92.4567 101.792 92.3752 101.997 92.2122C102.202 92.0492 102.354 91.8349 102.453 91.5692C102.551 91.3036 102.601 91.0159 102.601 90.706C102.601 90.3961 102.551 90.1073 102.453 89.8397C102.354 89.572 102.202 89.3557 101.997 89.1907C101.792 89.0257 101.53 88.9432 101.212 88.9432C100.894 88.9432 100.633 89.0257 100.427 89.1907C100.222 89.3557 100.07 89.572 99.9717 89.8397C99.8731 90.1073 99.8238 90.3961 99.8238 90.706C99.8238 91.0159 99.8731 91.3036 99.9717 91.5692C100.07 91.8349 100.222 92.0492 100.427 92.2122C100.633 92.3752 100.894 92.4567 101.212 92.4567ZM105.113 90.2109V93H104.401V88.3636H105.089V89.0881H105.149C105.258 88.8526 105.423 88.6635 105.644 88.5206C105.865 88.3757 106.151 88.3033 106.501 88.3033C106.815 88.3033 107.09 88.3677 107.325 88.4964C107.561 88.6232 107.744 88.8164 107.875 89.076C108.006 89.3336 108.071 89.6596 108.071 90.054V93H107.359V90.1023C107.359 89.738 107.264 89.4543 107.075 89.2511C106.886 89.0458 106.626 88.9432 106.296 88.9432C106.069 88.9432 105.865 88.9925 105.686 89.0911C105.509 89.1897 105.369 89.3336 105.267 89.5227C105.164 89.7119 105.113 89.9413 105.113 90.2109ZM111.763 93V88.3636H112.476V93H111.763ZM112.126 87.5909C111.987 87.5909 111.867 87.5436 111.766 87.449C111.668 87.3545 111.618 87.2408 111.618 87.108C111.618 86.9751 111.668 86.8614 111.766 86.7669C111.867 86.6723 111.987 86.625 112.126 86.625C112.264 86.625 112.383 86.6723 112.482 86.7669C112.582 86.8614 112.633 86.9751 112.633 87.108C112.633 87.2408 112.582 87.3545 112.482 87.449C112.383 87.5436 112.264 87.5909 112.126 87.5909ZM114.493 90.2109V93H113.78V88.3636H114.469V89.0881H114.529C114.638 88.8526 114.803 88.6635 115.024 88.5206C115.245 88.3757 115.531 88.3033 115.881 88.3033C116.195 88.3033 116.47 88.3677 116.705 88.4964C116.941 88.6232 117.124 88.8164 117.255 89.076C117.385 89.3336 117.451 89.6596 117.451 90.054V93H116.739V90.1023C116.739 89.738 116.644 89.4543 116.455 89.2511C116.266 89.0458 116.006 88.9432 115.676 88.9432C115.449 88.9432 115.245 88.9925 115.066 89.0911C114.889 89.1897 114.749 89.3336 114.647 89.5227C114.544 89.7119 114.493 89.9413 114.493 90.2109ZM124.427 89.402L123.787 89.5831C123.747 89.4764 123.688 89.3728 123.609 89.2722C123.533 89.1696 123.428 89.085 123.295 89.0186C123.163 88.9522 122.993 88.919 122.785 88.919C122.502 88.919 122.265 88.9844 122.076 89.1152C121.889 89.244 121.795 89.408 121.795 89.6072C121.795 89.7843 121.86 89.9242 121.988 90.0268C122.117 90.1294 122.318 90.215 122.592 90.2834L123.28 90.4524C123.695 90.553 124.004 90.707 124.207 90.9142C124.41 91.1195 124.512 91.3841 124.512 91.7081C124.512 91.9737 124.435 92.2112 124.282 92.4205C124.131 92.6297 123.92 92.7947 123.649 92.9155C123.377 93.0362 123.061 93.0966 122.701 93.0966C122.228 93.0966 121.836 92.994 121.527 92.7887C121.217 92.5835 121.02 92.2836 120.938 91.8892L121.614 91.7202C121.678 91.9697 121.8 92.1568 121.979 92.2816C122.16 92.4064 122.397 92.4688 122.689 92.4688C123.021 92.4688 123.284 92.3983 123.479 92.2575C123.677 92.1146 123.775 91.9435 123.775 91.7443C123.775 91.5833 123.719 91.4485 123.606 91.3398C123.494 91.2292 123.321 91.1467 123.087 91.0923L122.314 90.9112C121.89 90.8106 121.578 90.6547 121.379 90.4434C121.181 90.2301 121.083 89.9634 121.083 89.6435C121.083 89.3819 121.156 89.1504 121.303 88.9492C121.452 88.748 121.654 88.59 121.91 88.4753C122.167 88.3606 122.459 88.3033 122.785 88.3033C123.244 88.3033 123.604 88.4039 123.866 88.6051C124.129 88.8063 124.317 89.072 124.427 89.402ZM126.948 93.1087C126.655 93.1087 126.388 93.0533 126.149 92.9426C125.909 92.83 125.719 92.668 125.578 92.4567C125.437 92.2434 125.367 91.9858 125.367 91.6839C125.367 91.4183 125.419 91.203 125.524 91.038C125.628 90.871 125.768 90.7402 125.943 90.6456C126.118 90.551 126.312 90.4806 126.523 90.4343C126.736 90.386 126.95 90.3478 127.166 90.3196C127.448 90.2834 127.676 90.2562 127.851 90.2381C128.028 90.218 128.157 90.1848 128.237 90.1385C128.32 90.0922 128.361 90.0117 128.361 89.897V89.8729C128.361 89.575 128.28 89.3436 128.117 89.1786C127.956 89.0136 127.711 88.9311 127.383 88.9311C127.043 88.9311 126.776 89.0056 126.583 89.1545C126.39 89.3034 126.254 89.4624 126.176 89.6314L125.5 89.3899C125.62 89.1082 125.781 88.8888 125.983 88.7319C126.186 88.5729 126.407 88.4622 126.647 88.3999C126.888 88.3355 127.126 88.3033 127.359 88.3033C127.508 88.3033 127.679 88.3214 127.872 88.3576C128.067 88.3918 128.255 88.4632 128.437 88.5719C128.62 88.6806 128.772 88.8446 128.892 89.0639C129.013 89.2833 129.073 89.5771 129.073 89.9453V93H128.361V92.3722H128.325C128.277 92.4728 128.196 92.5804 128.083 92.6951C127.971 92.8098 127.821 92.9074 127.634 92.9879C127.447 93.0684 127.218 93.1087 126.948 93.1087ZM127.057 92.4688C127.339 92.4688 127.576 92.4134 127.769 92.3027C127.965 92.1921 128.112 92.0492 128.21 91.8741C128.311 91.699 128.361 91.5149 128.361 91.3217V90.6697C128.331 90.706 128.265 90.7392 128.162 90.7694C128.061 90.7975 127.945 90.8227 127.812 90.8448C127.681 90.8649 127.553 90.883 127.428 90.8991C127.306 90.9132 127.206 90.9253 127.13 90.9354C126.944 90.9595 126.771 90.9988 126.61 91.0531C126.451 91.1054 126.323 91.1849 126.224 91.2915C126.127 91.3962 126.079 91.5391 126.079 91.7202C126.079 91.9677 126.171 92.1548 126.354 92.2816C126.539 92.4064 126.773 92.4688 127.057 92.4688ZM133.999 88.3636L132.284 93H131.56L129.845 88.3636H130.618L131.898 92.0582H131.946L133.226 88.3636H133.999ZM134.939 93V88.3636H135.651V93H134.939ZM135.301 87.5909C135.162 87.5909 135.043 87.5436 134.942 87.449C134.844 87.3545 134.794 87.2408 134.794 87.108C134.794 86.9751 134.844 86.8614 134.942 86.7669C135.043 86.6723 135.162 86.625 135.301 86.625C135.44 86.625 135.559 86.6723 135.657 86.7669C135.758 86.8614 135.808 86.9751 135.808 87.108C135.808 87.2408 135.758 87.3545 135.657 87.449C135.559 87.5436 135.44 87.5909 135.301 87.5909ZM137.669 90.2109V93H136.956V88.3636H137.644V89.0881H137.705C137.813 88.8526 137.978 88.6635 138.2 88.5206C138.421 88.3757 138.707 88.3033 139.057 88.3033C139.371 88.3033 139.646 88.3677 139.881 88.4964C140.117 88.6232 140.3 88.8164 140.43 89.076C140.561 89.3336 140.627 89.6596 140.627 90.054V93H139.914V90.1023C139.914 89.738 139.82 89.4543 139.631 89.2511C139.441 89.0458 139.182 88.9432 138.852 88.9432C138.624 88.9432 138.421 88.9925 138.242 89.0911C138.065 89.1897 137.925 89.3336 137.822 89.5227C137.72 89.7119 137.669 89.9413 137.669 90.2109ZM143.8 94.8352C143.456 94.8352 143.16 94.791 142.912 94.7024C142.665 94.6159 142.459 94.5012 142.294 94.3583C142.131 94.2174 142.001 94.0665 141.904 93.9055L142.472 93.5071C142.536 93.5916 142.618 93.6882 142.716 93.7969C142.815 93.9076 142.95 94.0031 143.121 94.0836C143.294 94.1661 143.52 94.2074 143.8 94.2074C144.174 94.2074 144.483 94.1168 144.726 93.9357C144.97 93.7546 145.092 93.4709 145.092 93.0845V92.1428H145.031C144.979 92.2273 144.905 92.3319 144.808 92.4567C144.713 92.5794 144.577 92.6891 144.397 92.7857C144.22 92.8803 143.981 92.9276 143.679 92.9276C143.305 92.9276 142.969 92.839 142.671 92.6619C142.375 92.4848 142.141 92.2273 141.968 91.8892C141.797 91.5511 141.711 91.1406 141.711 90.6577C141.711 90.1828 141.795 89.7692 141.962 89.4171C142.129 89.0629 142.361 88.7892 142.659 88.5961C142.957 88.4009 143.301 88.3033 143.691 88.3033C143.993 88.3033 144.232 88.3536 144.41 88.4542C144.589 88.5528 144.725 88.6655 144.82 88.7923C144.917 88.917 144.991 89.0196 145.043 89.1001H145.116V88.3636H145.804V93.1328C145.804 93.5312 145.714 93.8552 145.532 94.1048C145.353 94.3563 145.112 94.5404 144.808 94.6571C144.506 94.7759 144.17 94.8352 143.8 94.8352ZM143.776 92.2876C144.061 92.2876 144.303 92.2222 144.5 92.0914C144.697 91.9606 144.847 91.7725 144.95 91.527C145.052 91.2815 145.104 90.9877 145.104 90.6456C145.104 90.3116 145.053 90.0167 144.953 89.7612C144.852 89.5056 144.703 89.3054 144.506 89.1605C144.309 89.0156 144.065 88.9432 143.776 88.9432C143.474 88.9432 143.222 89.0196 143.021 89.1726C142.822 89.3255 142.672 89.5308 142.571 89.7884C142.473 90.0459 142.423 90.3317 142.423 90.6456C142.423 90.9676 142.474 91.2523 142.574 91.4998C142.677 91.7453 142.828 91.9385 143.027 92.0794C143.228 92.2182 143.478 92.2876 143.776 92.2876ZM154.57 88.75H153.821C153.777 88.5347 153.699 88.3455 153.589 88.1825C153.48 88.0195 153.347 87.8827 153.19 87.772C153.035 87.6593 152.863 87.5748 152.674 87.5185C152.485 87.4621 152.288 87.4339 152.082 87.4339C151.708 87.4339 151.369 87.5285 151.065 87.7177C150.763 87.9068 150.523 88.1855 150.344 88.5538C150.167 88.9221 150.078 89.3738 150.078 89.9091C150.078 90.4444 150.167 90.8961 150.344 91.2644C150.523 91.6326 150.763 91.9113 151.065 92.1005C151.369 92.2897 151.708 92.3842 152.082 92.3842C152.288 92.3842 152.485 92.3561 152.674 92.2997C152.863 92.2434 153.035 92.1599 153.19 92.0492C153.347 91.9365 153.48 91.7987 153.589 91.6357C153.699 91.4706 153.777 91.2815 153.821 91.0682H154.57C154.513 91.3841 154.411 91.6668 154.262 91.9164C154.113 92.1659 153.928 92.3782 153.706 92.5533C153.485 92.7263 153.237 92.8581 152.961 92.9487C152.687 93.0392 152.394 93.0845 152.082 93.0845C151.555 93.0845 151.086 92.9557 150.676 92.6982C150.265 92.4406 149.942 92.0743 149.707 91.5994C149.472 91.1245 149.354 90.5611 149.354 89.9091C149.354 89.2571 149.472 88.6937 149.707 88.2188C149.942 87.7438 150.265 87.3776 150.676 87.12C151.086 86.8625 151.555 86.7337 152.082 86.7337C152.394 86.7337 152.687 86.7789 152.961 86.8695C153.237 86.96 153.485 87.0929 153.706 87.2679C153.928 87.441 154.113 87.6523 154.262 87.9018C154.411 88.1493 154.513 88.4321 154.57 88.75ZM160.995 89.9091C160.995 90.5611 160.878 91.1245 160.642 91.5994C160.407 92.0743 160.084 92.4406 159.673 92.6982C159.263 92.9557 158.794 93.0845 158.267 93.0845C157.739 93.0845 157.27 92.9557 156.86 92.6982C156.449 92.4406 156.126 92.0743 155.891 91.5994C155.656 91.1245 155.538 90.5611 155.538 89.9091C155.538 89.2571 155.656 88.6937 155.891 88.2188C156.126 87.7438 156.449 87.3776 156.86 87.12C157.27 86.8625 157.739 86.7337 158.267 86.7337C158.794 86.7337 159.263 86.8625 159.673 87.12C160.084 87.3776 160.407 87.7438 160.642 88.2188C160.878 88.6937 160.995 89.2571 160.995 89.9091ZM160.271 89.9091C160.271 89.3738 160.181 88.9221 160.002 88.5538C159.825 88.1855 159.585 87.9068 159.281 87.7177C158.979 87.5285 158.641 87.4339 158.267 87.4339C157.892 87.4339 157.553 87.5285 157.249 87.7177C156.947 87.9068 156.707 88.1855 156.528 88.5538C156.351 88.9221 156.262 89.3738 156.262 89.9091C156.262 90.4444 156.351 90.8961 156.528 91.2644C156.707 91.6326 156.947 91.9113 157.249 92.1005C157.553 92.2897 157.892 92.3842 158.267 92.3842C158.641 92.3842 158.979 92.2897 159.281 92.1005C159.585 91.9113 159.825 91.6326 160.002 91.2644C160.181 90.8961 160.271 90.4444 160.271 89.9091ZM162.145 93V92.4567L164.186 90.223C164.425 89.9614 164.622 89.734 164.777 89.5408C164.932 89.3456 165.047 89.1625 165.121 88.9915C165.198 88.8184 165.236 88.6373 165.236 88.4482C165.236 88.2308 165.184 88.0427 165.079 87.8837C164.977 87.7247 164.836 87.602 164.657 87.5154C164.478 87.4289 164.276 87.3857 164.053 87.3857C163.816 87.3857 163.608 87.435 163.431 87.5336C163.256 87.6301 163.12 87.766 163.024 87.9411C162.929 88.1161 162.882 88.3214 162.882 88.5568H162.169C162.169 88.1946 162.253 87.8767 162.42 87.603C162.587 87.3293 162.814 87.116 163.102 86.9631C163.392 86.8101 163.717 86.7337 164.077 86.7337C164.439 86.7337 164.76 86.8101 165.04 86.9631C165.32 87.116 165.539 87.3223 165.698 87.5819C165.857 87.8414 165.936 88.1302 165.936 88.4482C165.936 88.6755 165.895 88.8979 165.813 89.1152C165.732 89.3306 165.591 89.571 165.39 89.8366C165.191 90.1003 164.914 90.4222 164.56 90.8026L163.172 92.2876V92.3359H166.045V93H162.145ZM169.248 93.0966C168.801 93.0966 168.416 92.998 168.092 92.8008C167.77 92.6016 167.521 92.3239 167.346 91.9677C167.173 91.6095 167.087 91.1929 167.087 90.718C167.087 90.2431 167.173 89.8246 167.346 89.4624C167.521 89.0981 167.765 88.8144 168.077 88.6112C168.39 88.4059 168.757 88.3033 169.175 88.3033C169.417 88.3033 169.655 88.3435 169.891 88.424C170.126 88.5045 170.34 88.6353 170.534 88.8164C170.727 88.9955 170.881 89.233 170.995 89.5288C171.11 89.8246 171.167 90.1888 171.167 90.6214V90.9233H167.594V90.3075H170.443C170.443 90.0459 170.391 89.8125 170.286 89.6072C170.183 89.402 170.037 89.24 169.845 89.1213C169.656 89.0025 169.433 88.9432 169.175 88.9432C168.892 88.9432 168.646 89.0136 168.439 89.1545C168.234 89.2933 168.076 89.4744 167.965 89.6978C167.854 89.9212 167.799 90.1606 167.799 90.4162V90.8267C167.799 91.1768 167.859 91.4737 167.98 91.7172C168.103 91.9586 168.273 92.1428 168.49 92.2695C168.707 92.3943 168.96 92.4567 169.248 92.4567C169.435 92.4567 169.604 92.4305 169.755 92.3782C169.908 92.3239 170.04 92.2434 170.15 92.1367C170.261 92.0281 170.346 91.8932 170.407 91.7322L171.095 91.9254C171.023 92.1589 170.901 92.3641 170.73 92.5412C170.559 92.7163 170.347 92.8531 170.096 92.9517C169.844 93.0483 169.562 93.0966 169.248 93.0966Z" fill="black"/>
<path d="M355.638 93V86.8182H356.387V92.3359H359.26V93H355.638ZM362.267 93.0966C361.82 93.0966 361.435 92.998 361.111 92.8008C360.789 92.6016 360.54 92.3239 360.365 91.9677C360.192 91.6095 360.106 91.1929 360.106 90.718C360.106 90.2431 360.192 89.8246 360.365 89.4624C360.54 89.0981 360.784 88.8144 361.096 88.6112C361.41 88.4059 361.776 88.3033 362.194 88.3033C362.436 88.3033 362.674 88.3435 362.91 88.424C363.145 88.5045 363.359 88.6353 363.553 88.8164C363.746 88.9955 363.9 89.233 364.014 89.5288C364.129 89.8246 364.187 90.1888 364.187 90.6214V90.9233H360.613V90.3075H363.462C363.462 90.0459 363.41 89.8125 363.305 89.6072C363.203 89.402 363.056 89.24 362.864 89.1213C362.675 89.0025 362.452 88.9432 362.194 88.9432C361.911 88.9432 361.665 89.0136 361.458 89.1545C361.253 89.2933 361.095 89.4744 360.984 89.6978C360.873 89.9212 360.818 90.1606 360.818 90.4162V90.8267C360.818 91.1768 360.878 91.4737 360.999 91.7172C361.122 91.9586 361.292 92.1428 361.509 92.2695C361.726 92.3943 361.979 92.4567 362.267 92.4567C362.454 92.4567 362.623 92.4305 362.774 92.3782C362.927 92.3239 363.059 92.2434 363.169 92.1367C363.28 92.0281 363.366 91.8932 363.426 91.7322L364.114 91.9254C364.042 92.1589 363.92 92.3641 363.749 92.5412C363.578 92.7163 363.367 92.8531 363.115 92.9517C362.863 93.0483 362.581 93.0966 362.267 93.0966ZM368.554 89.402L367.914 89.5831C367.874 89.4764 367.815 89.3728 367.736 89.2722C367.66 89.1696 367.555 89.085 367.422 89.0186C367.29 88.9522 367.119 88.919 366.912 88.919C366.628 88.919 366.392 88.9844 366.203 89.1152C366.016 89.244 365.922 89.408 365.922 89.6072C365.922 89.7843 365.987 89.9242 366.115 90.0268C366.244 90.1294 366.445 90.215 366.719 90.2834L367.407 90.4524C367.822 90.553 368.131 90.707 368.334 90.9142C368.537 91.1195 368.639 91.3841 368.639 91.7081C368.639 91.9737 368.562 92.2112 368.409 92.4205C368.258 92.6297 368.047 92.7947 367.775 92.9155C367.504 93.0362 367.188 93.0966 366.828 93.0966C366.355 93.0966 365.963 92.994 365.653 92.7887C365.344 92.5835 365.147 92.2836 365.065 91.8892L365.741 91.7202C365.805 91.9697 365.927 92.1568 366.106 92.2816C366.287 92.4064 366.524 92.4688 366.816 92.4688C367.148 92.4688 367.411 92.3983 367.606 92.2575C367.804 92.1146 367.902 91.9435 367.902 91.7443C367.902 91.5833 367.846 91.4485 367.733 91.3398C367.621 91.2292 367.447 91.1467 367.214 91.0923L366.441 90.9112C366.017 90.8106 365.705 90.6547 365.506 90.4434C365.308 90.2301 365.21 89.9634 365.21 89.6435C365.21 89.3819 365.283 89.1504 365.43 88.9492C365.579 88.748 365.781 88.59 366.037 88.4753C366.294 88.3606 366.586 88.3033 366.912 88.3033C367.371 88.3033 367.731 88.4039 367.993 88.6051C368.256 88.8063 368.444 89.072 368.554 89.402ZM372.995 89.402L372.355 89.5831C372.315 89.4764 372.256 89.3728 372.177 89.2722C372.101 89.1696 371.996 89.085 371.863 89.0186C371.73 88.9522 371.56 88.919 371.353 88.919C371.069 88.919 370.833 88.9844 370.644 89.1152C370.457 89.244 370.363 89.408 370.363 89.6072C370.363 89.7843 370.427 89.9242 370.556 90.0268C370.685 90.1294 370.886 90.215 371.16 90.2834L371.848 90.4524C372.263 90.553 372.572 90.707 372.775 90.9142C372.978 91.1195 373.08 91.3841 373.08 91.7081C373.08 91.9737 373.003 92.2112 372.85 92.4205C372.699 92.6297 372.488 92.7947 372.216 92.9155C371.945 93.0362 371.629 93.0966 371.269 93.0966C370.796 93.0966 370.404 92.994 370.094 92.7887C369.785 92.5835 369.588 92.2836 369.506 91.8892L370.182 91.7202C370.246 91.9697 370.368 92.1568 370.547 92.2816C370.728 92.4064 370.965 92.4688 371.257 92.4688C371.589 92.4688 371.852 92.3983 372.047 92.2575C372.245 92.1146 372.343 91.9435 372.343 91.7443C372.343 91.5833 372.287 91.4485 372.174 91.3398C372.061 91.2292 371.888 91.1467 371.655 91.0923L370.882 90.9112C370.458 90.8106 370.146 90.6547 369.947 90.4434C369.749 90.2301 369.651 89.9634 369.651 89.6435C369.651 89.3819 369.724 89.1504 369.871 88.9492C370.02 88.748 370.222 88.59 370.478 88.4753C370.735 88.3606 371.027 88.3033 371.353 88.3033C371.812 88.3033 372.172 88.4039 372.434 88.6051C372.697 88.8063 372.884 89.072 372.995 89.402Z" fill="black"/>
<rect x="373.5" y="86.5" width="7" height="7" rx="1" fill="#73BFBC"/>
<rect x="382.2" y="86.5" width="7" height="7" rx="1" fill="#328481"/>
<rect x="390.9" y="86.5" width="7" height="7" rx="1" fill="#328481"/>
<rect x="399.6" y="86.5" width="7" height="7" rx="1" fill="#256664"/>
<rect x="408.3" y="86.5" width="7" height="7" rx="1" fill="#2B6663"/>
<rect x="417" y="86.5" width="7" height="7" rx="1" fill="#214F4D"/>
<path d="M425.146 86.8182H426.04L428.14 91.9496H428.213L430.314 86.8182H431.207V93H430.507V88.3033H430.446L428.515 93H427.839L425.907 88.3033H425.846V93H425.146V86.8182ZM434.495 93.0966C434.076 93.0966 433.709 92.997 433.393 92.7978C433.079 92.5985 432.834 92.3198 432.657 91.9616C432.482 91.6035 432.394 91.1849 432.394 90.706C432.394 90.223 432.482 89.8014 432.657 89.4412C432.834 89.081 433.079 88.8013 433.393 88.6021C433.709 88.4029 434.076 88.3033 434.495 88.3033C434.914 88.3033 435.28 88.4029 435.594 88.6021C435.91 88.8013 436.155 89.081 436.33 89.4412C436.507 89.8014 436.596 90.223 436.596 90.706C436.596 91.1849 436.507 91.6035 436.33 91.9616C436.155 92.3198 435.91 92.5985 435.594 92.7978C435.28 92.997 434.914 93.0966 434.495 93.0966ZM434.495 92.4567C434.813 92.4567 435.075 92.3752 435.28 92.2122C435.485 92.0492 435.637 91.8349 435.736 91.5692C435.834 91.3036 435.883 91.0159 435.883 90.706C435.883 90.3961 435.834 90.1073 435.736 89.8397C435.637 89.572 435.485 89.3557 435.28 89.1907C435.075 89.0257 434.813 88.9432 434.495 88.9432C434.177 88.9432 433.915 89.0257 433.71 89.1907C433.505 89.3557 433.353 89.572 433.254 89.8397C433.156 90.1073 433.106 90.3961 433.106 90.706C433.106 91.0159 433.156 91.3036 433.254 91.5692C433.353 91.8349 433.505 92.0492 433.71 92.2122C433.915 92.3752 434.177 92.4567 434.495 92.4567ZM437.683 93V88.3636H438.371V89.0639H438.42C438.504 88.8345 438.657 88.6484 438.879 88.5055C439.1 88.3626 439.349 88.2912 439.627 88.2912C439.679 88.2912 439.745 88.2922 439.823 88.2942C439.902 88.2962 439.961 88.2992 440.001 88.3033V89.0277C439.977 89.0217 439.922 89.0126 439.835 89.0005C439.751 88.9864 439.661 88.9794 439.567 88.9794C439.341 88.9794 439.14 89.0267 438.963 89.1213C438.788 89.2138 438.649 89.3426 438.547 89.5076C438.446 89.6706 438.396 89.8568 438.396 90.0661V93H437.683ZM442.649 93.0966C442.202 93.0966 441.817 92.998 441.493 92.8008C441.171 92.6016 440.922 92.3239 440.747 91.9677C440.574 91.6095 440.487 91.1929 440.487 90.718C440.487 90.2431 440.574 89.8246 440.747 89.4624C440.922 89.0981 441.166 88.8144 441.477 88.6112C441.791 88.4059 442.158 88.3033 442.576 88.3033C442.818 88.3033 443.056 88.3435 443.292 88.424C443.527 88.5045 443.741 88.6353 443.934 88.8164C444.128 88.9955 444.282 89.233 444.396 89.5288C444.511 89.8246 444.568 90.1888 444.568 90.6214V90.9233H440.994V90.3075H443.844C443.844 90.0459 443.792 89.8125 443.687 89.6072C443.584 89.402 443.437 89.24 443.246 89.1213C443.057 89.0025 442.834 88.9432 442.576 88.9432C442.292 88.9432 442.047 89.0136 441.84 89.1545C441.634 89.2933 441.476 89.4744 441.366 89.6978C441.255 89.9212 441.2 90.1606 441.2 90.4162V90.8267C441.2 91.1768 441.26 91.4737 441.381 91.7172C441.504 91.9586 441.674 92.1428 441.891 92.2695C442.108 92.3943 442.361 92.4567 442.649 92.4567C442.836 92.4567 443.005 92.4305 443.156 92.3782C443.309 92.3239 443.44 92.2434 443.551 92.1367C443.662 92.0281 443.747 91.8932 443.808 91.7322L444.496 91.9254C444.423 92.1589 444.302 92.3641 444.131 92.5412C443.96 92.7163 443.748 92.8531 443.497 92.9517C443.245 93.0483 442.963 93.0966 442.649 93.0966Z" fill="black"/>
</g>
<defs>
<clipPath id="clip0_4093_986">
<rect width="416" height="10" fill="white" transform="translate(29 85)"/>
</clipPath>
</defs>
</svg>
