<svg width="17" height="20" viewBox="0 0 17 20" fill="none" xmlns="http://www.w3.org/2000/svg">
<path d="M2.29956 13.7C2.29956 14.1091 2.43309 14.4409 2.69604 14.7039C2.959 14.9668 3.29075 15.1003 3.69995 15.1003H12.7C13.1091 15.1003 13.4409 14.9668 13.7039 14.7039C13.9668 14.4409 14.1003 14.1091 14.1003 13.7V10.2996H2.29956V13.7ZM4.69995 11.1003C5.15742 11.1003 5.54175 11.2507 5.84546 11.5544C6.14917 11.8582 6.29956 12.2425 6.29956 12.7C6.29956 13.1574 6.14917 13.5418 5.84546 13.8455C5.54175 14.1492 5.15742 14.2996 4.69995 14.2996C4.24248 14.2996 3.85815 14.1492 3.55444 13.8455C3.25073 13.5418 3.10034 13.1574 3.10034 12.7C3.10034 12.2425 3.25073 11.8582 3.55444 11.5544C3.85815 11.2507 4.24248 11.1003 4.69995 11.1003ZM11.7 11.1003C12.1574 11.1003 12.5418 11.2507 12.8455 11.5544C13.1492 11.8582 13.2996 12.2425 13.2996 12.7C13.2996 13.1574 13.1492 13.5418 12.8455 13.8455C12.5418 14.1492 12.1574 14.2996 11.7 14.2996C11.2425 14.2996 10.8582 14.1492 10.5544 13.8455C10.2507 13.5418 10.1003 13.1574 10.1003 12.7C10.1003 12.2425 10.2507 11.8582 10.5544 11.5544C10.8582 11.2507 11.2425 11.1003 11.7 11.1003ZM9.29956 8.10034H14.1003V5.29956H9.29956V8.10034ZM2.29956 8.10034H7.10034V5.29956H2.29956V8.10034ZM8.19995 2.29956C6.4346 2.29956 5.1532 2.40407 4.34937 2.60913C3.7406 2.76444 3.28576 2.92917 2.97729 3.10034H13.5808C13.4832 3.03257 13.3634 2.96513 13.2185 2.90112C12.9574 2.78578 12.6233 2.67967 12.2146 2.58472C11.4016 2.39587 10.0657 2.29956 8.19995 2.29956ZM14.2996 19.2996H12.1589L10.1589 17.2996H6.24097L4.24097 19.2996H2.10034V18.6589L3.46655 17.2927C2.55856 17.2427 1.78153 16.8987 1.14136 16.2585C0.446982 15.5642 0.100342 14.7089 0.100342 13.7V4.19995C0.100342 3.2991 0.334122 2.56892 0.812256 2.02124C1.28314 1.48199 1.90247 1.07358 2.66577 0.793701C3.42513 0.51529 4.2877 0.330358 5.25269 0.238037C6.2143 0.146056 7.19689 0.100342 8.19995 0.100342C9.3027 0.100342 10.3436 0.146045 11.322 0.238037C12.3036 0.330341 13.163 0.514834 13.8982 0.793701C14.6372 1.07404 15.2236 1.48407 15.6531 2.02515C16.0877 2.57275 16.2996 3.30125 16.2996 4.19995V13.7C16.2996 14.7089 15.9529 15.5642 15.2585 16.2585C14.6184 16.8987 13.8413 17.2427 12.9333 17.2927L14.2996 18.6589V19.2996Z" fill="#214F4D" stroke="#CCE88C" stroke-width="0.2"/>
</svg>
