<svg width="58" height="50" viewBox="0 0 58 50" fill="none" xmlns="http://www.w3.org/2000/svg">
<path d="M16 49V47C14.9 47 13.9583 46.6083 13.175 45.825C12.3917 45.0417 12 44.1 12 43V21C12 19.9 12.3917 18.9583 13.175 18.175C13.9583 17.3917 14.9 17 16 17H20V11C20 10.4333 20.1917 9.95833 20.575 9.575C20.9583 9.19167 21.4333 9 22 9H30C30.5667 9 31.0417 9.19167 31.425 9.575C31.8083 9.95833 32 10.4333 32 11V17H36C37.1 17 38.0417 17.3917 38.825 18.175C39.6083 18.9583 40 19.9 40 21V43C40 44.1 39.6083 45.0417 38.825 45.825C38.0417 46.6083 37.1 47 36 47V49H32V47H20V49H16ZM24 17H28V13H24V17ZM26 29C27.7667 29 29.4917 28.775 31.175 28.325C32.8583 27.875 34.4667 27.2 36 26.3V21H16V26.3C17.5333 27.2 19.1417 27.875 20.825 28.325C22.5083 28.775 24.2333 29 26 29ZM24 35V32.9C22.6 32.7333 21.2333 32.4833 19.9 32.15C18.5667 31.8167 17.2667 31.3667 16 30.8V43H36V30.8C34.7333 31.3667 33.4333 31.8167 32.1 32.15C30.7667 32.4833 29.4 32.7333 28 32.9V35H24Z" fill="#F2F3F0" stroke="#153A39" stroke-width="0.5"/>
<g filter="url(#filter0_d_30_162)">
<path d="M39.4 19.6C38.65 18.85 38.0625 17.9833 37.6375 17C37.2125 16.0167 37 15 37 13.95C37 12.9 37.2 11.8625 37.6 10.8375C38 9.8125 38.65 8.85 39.55 7.95C40.1333 7.36666 40.8542 6.86666 41.7125 6.45C42.5708 6.03333 43.5875 5.70416 44.7625 5.4625C45.9375 5.22083 47.2792 5.075 48.7875 5.025C50.2958 4.975 51.9833 5.03333 53.85 5.2C53.9833 6.96666 54.025 8.59166 53.975 10.075C53.925 11.5583 53.7875 12.8958 53.5625 14.0875C53.3375 15.2792 53.0208 16.3208 52.6125 17.2125C52.2042 18.1042 51.7 18.85 51.1 19.45C50.2167 20.3333 49.2792 20.9792 48.2875 21.3875C47.2958 21.7958 46.2833 22 45.25 22C44.1667 22 43.1083 21.7875 42.075 21.3625C41.0417 20.9375 40.15 20.35 39.4 19.6ZM42.2 19.2C42.6833 19.4833 43.1792 19.6875 43.6875 19.8125C44.1958 19.9375 44.7167 20 45.25 20C46.0167 20 46.775 19.8458 47.525 19.5375C48.275 19.2292 48.9917 18.7333 49.675 18.05C49.975 17.75 50.2792 17.3292 50.5875 16.7875C50.8958 16.2458 51.1625 15.5375 51.3875 14.6625C51.6125 13.7875 51.7833 12.7292 51.9 11.4875C52.0167 10.2458 52.0333 8.76666 51.95 7.05C51.1333 7.01666 50.2125 7.00416 49.1875 7.0125C48.1625 7.02083 47.1417 7.1 46.125 7.25C45.1083 7.4 44.1417 7.64166 43.225 7.975C42.3083 8.30833 41.5583 8.76666 40.975 9.35C40.225 10.1 39.7083 10.8417 39.425 11.575C39.1417 12.3083 39 13.0167 39 13.7C39 14.6833 39.1875 15.5458 39.5625 16.2875C39.9375 17.0292 40.2667 17.55 40.55 17.85C41.25 16.5167 42.175 15.2375 43.325 14.0125C44.475 12.7875 45.8167 11.7833 47.35 11C46.15 12.05 45.1042 13.2375 44.2125 14.5625C43.3208 15.8875 42.65 17.4333 42.2 19.2Z" fill="#CCE88C"/>
</g>
<defs>
<filter id="filter0_d_30_162" x="36.7" y="5.00769" width="17.5954" height="18.2923" filterUnits="userSpaceOnUse" color-interpolation-filters="sRGB">
<feFlood flood-opacity="0" result="BackgroundImageFix"/>
<feColorMatrix in="SourceAlpha" type="matrix" values="0 0 0 0 0 0 0 0 0 0 0 0 0 0 0 0 0 0 127 0" result="hardAlpha"/>
<feOffset dy="1"/>
<feGaussianBlur stdDeviation="0.15"/>
<feComposite in2="hardAlpha" operator="out"/>
<feColorMatrix type="matrix" values="0 0 0 0 0 0 0 0 0 0 0 0 0 0 0 0 0 0 0.25 0"/>
<feBlend mode="color-burn" in2="BackgroundImageFix" result="effect1_dropShadow_30_162"/>
<feBlend mode="normal" in="SourceGraphic" in2="effect1_dropShadow_30_162" result="shape"/>
</filter>
</defs>
</svg>
